<?xml version="1.0" encoding="UTF-8" standalone="no"?>
<!-- Created with Inkscape (http://www.inkscape.org/) -->

<svg
   width="114.80727mm"
   height="114.80727mm"
   viewBox="0 0 114.80727 114.80727"
   version="1.1"
   id="svg5"
   xml:space="preserve"
   sodipodi:docname="mint_logo_file.svg"
   inkscape:version="1.2.2 (b0a8486541, 2022-12-01)"
   xmlns:inkscape="http://www.inkscape.org/namespaces/inkscape"
   xmlns:sodipodi="http://sodipodi.sourceforge.net/DTD/sodipodi-0.dtd"
   xmlns="http://www.w3.org/2000/svg"
   xmlns:svg="http://www.w3.org/2000/svg"><sodipodi:namedview
     id="namedview7"
     pagecolor="#505050"
     bordercolor="#eeeeee"
     borderopacity="1"
     inkscape:showpageshadow="0"
     inkscape:pageopacity="0"
     inkscape:pagecheckerboard="0"
     inkscape:deskcolor="#505050"
     inkscape:document-units="mm"
     showgrid="false"
     inkscape:zoom="1.1455278"
     inkscape:cx="399.81571"
     inkscape:cy="544.72708"
     inkscape:window-width="1920"
     inkscape:window-height="1006"
     inkscape:window-x="0"
     inkscape:window-y="37"
     inkscape:window-maximized="1"
     inkscape:current-layer="layer1" /><defs
     id="defs2" /><g
     inkscape:label="Layer 1"
     inkscape:groupmode="layer"
     id="layer1"
     transform="translate(205.50971,-234.09641)"><rect
       style="font-variation-settings:'wght' 400;fill:#ffffff;fill-opacity:1;stroke:none;stroke-width:0.10249;stroke-linecap:round"
       id="rect6521"
       width="114.80727"
       height="114.80727"
       x="-205.5097"
       y="234.09642"
       ry="57.403633"
       inkscape:export-filename="mint_logo_circle.png"
       inkscape:export-xdpi="221.24034"
       inkscape:export-ydpi="221.24034" /><g
       id="g6510"
       transform="translate(-207.22527,134.42423)"><path
         id="path3150"
         style="fill:#e6953c;stroke-width:0.133118"
         d="m 53.190203,104.16007 c -0.09301,0 -0.937677,0.46203 -1.877405,1.02681 -5.274678,3.1701 -9.375105,7.26425 -11.485604,11.46855 -0.270755,0.53936 -0.6318,1.12015 -0.802535,1.29088 -0.170732,0.17074 -0.262602,0.32878 -0.204122,0.35088 0.05848,0.022 -0.06533,0.56412 -0.274918,1.20458 -0.685712,2.09532 -0.84926,3.25241 -0.84336,5.95726 0.0044,2.02982 0.05709,2.70479 0.301274,3.84111 0.693217,3.22596 2.102558,6.46717 4.122229,9.4821 1.594199,2.3798 2.891547,3.90279 5.435844,6.37843 2.411518,2.34643 4.240053,3.80928 7.766451,6.21357 2.820899,1.92328 5.857216,4.1753 7.787638,5.77691 1.80623,1.49856 5.918035,5.62694 7.149951,7.17837 2.863569,3.60628 4.683394,7.22033 5.450314,10.82415 0.372285,1.74939 0.406379,5.07981 0.0677,6.61406 -0.331825,1.5032 -0.777143,2.92851 -0.91519,2.92851 -0.06747,0 -0.08659,0.11442 -0.04237,0.25373 0.100574,0.31687 -0.706183,2.08605 -1.627808,3.56981 -1.136967,1.83045 -2.259956,3.21263 -4.150651,5.10873 -1.919861,1.92536 -3.568853,3.29917 -5.560384,4.63227 -0.674295,0.45136 -1.261994,0.87882 -1.305864,0.94982 h -5.16e-4 c -0.1426,0.23073 0.194471,0.13959 2.043286,-0.55139 2.327516,-0.86987 5.321878,-2.38384 7.211446,-3.64629 4.989685,-3.33373 8.381124,-7.64499 9.989054,-12.69845 l 0.50023,-1.57251 c 15.49123,-11.64215 19.824867,-33.21018 9.77925,-49.99333 -6.46143,-10.79507 -17.4787,-17.28168 -29.195638,-18.36736 -5.813196,-0.53864 -11.79822,0.25322 -17.485237,2.50734 -0.0029,-0.0292 -0.0051,-0.0582 -0.0155,-0.0909 -0.152426,-0.48025 1.535441,-3.24949 3.367753,-5.52576 0.595179,-0.73938 1.959855,-2.19215 3.03289,-3.22823 1.073034,-1.03607 1.874803,-1.8836 1.781803,-1.8836 z m 5.788277,8.48113 c 12.855224,-0.007 25.332463,6.58121 32.362363,18.32602 9.836487,16.43375 5.73384,37.49495 -9.21597,49.08692 -0.0314,-0.12371 -0.006,-0.65501 0.0718,-1.31309 0.1277,-1.08184 0.16129,-2.11044 0.14159,-4.33876 -0.003,-0.30726 0.23454,-0.5971 0.74466,-0.90899 0.23852,-0.14586 0.31387,-0.24417 0.18707,-0.24443 -0.11677,-2.8e-4 -0.32068,0.11919 -0.4532,0.26562 -0.34797,0.38454 -0.64566,0.34779 -0.56586,-0.0698 0.0353,-0.18478 0.008,-0.3706 -0.06,-0.4129 -0.0683,-0.0422 -0.10785,-0.26603 -0.0879,-0.49764 0.0199,-0.23161 -0.0124,-0.4995 -0.0713,-0.5948 -0.0589,-0.0953 -0.0717,-0.20836 -0.0284,-0.25166 0.0433,-0.0433 0.0123,-0.15905 -0.0692,-0.25735 -0.0815,-0.0983 -0.10359,-0.1788 -0.0491,-0.1788 0.0546,0 0.0168,-0.0994 -0.0837,-0.22118 -0.147842,-0.1794 -0.149378,-0.23278 -0.009,-0.28008 0.13134,-0.0442 0.12074,-0.0966 -0.0439,-0.21704 -0.119571,-0.0874 -0.227862,-0.36615 -0.240292,-0.61909 -0.01243,-0.25293 -0.104887,-0.52458 -0.205672,-0.60358 -0.143805,-0.11274 -0.150087,-0.20499 -0.02997,-0.42943 0.120368,-0.22468 0.11672,-0.27229 -0.01654,-0.22169 -0.111734,0.0424 -0.32269,-0.33284 -0.618567,-1.10122 -2.132838,-5.53899 -6.444598,-11.09369 -12.720154,-16.38608 -0.810616,-0.68362 -1.459049,-1.29746 -1.440739,-1.36426 0.0183,-0.0668 -0.06638,-0.12144 -0.188619,-0.12144 -0.346973,0 -1.899553,-1.2284 -1.992643,-1.57665 -0.05237,-0.19583 -0.118824,-0.25536 -0.178283,-0.15916 -0.06261,0.1013 -0.859077,-0.35746 -2.347661,-1.35186 -1.239227,-0.82783 -3.090939,-2.05678 -4.114477,-2.7311 -2.671291,-1.75986 -4.780421,-3.44023 -6.897254,-5.49527 -2.113111,-2.05142 -3.144995,-3.247 -4.395597,-5.0922 -3.154157,-4.65379 -4.141547,-9.76314 -2.862358,-14.80994 0.301929,-1.19121 0.738748,-2.36947 1.064535,-2.93523 4.678153,-1.95049 9.572524,-2.89127 14.414107,-2.89388 z m -9.11934,6.04511 c -0.04624,-0.002 -0.09871,0.007 -0.146761,0.0258 -0.106188,0.0425 -0.07446,0.0746 0.08061,0.0806 0.140305,0.006 0.218887,-0.0256 0.174667,-0.0698 -0.02212,-0.0221 -0.06228,-0.0348 -0.108521,-0.0367 z m 15.175818,0 c -0.04624,-0.002 -0.09923,0.007 -0.147278,0.0258 -0.106189,0.0425 -0.07446,0.0746 0.08062,0.0806 0.140354,0.006 0.218897,-0.0256 0.174667,-0.0698 -0.02212,-0.0221 -0.06176,-0.0348 -0.108004,-0.0367 z m 7.188192,0.26665 c -0.04624,-0.002 -0.09871,0.006 -0.146761,0.0253 -0.106188,0.0425 -0.07498,0.0746 0.0801,0.0806 0.140305,0.006 0.218886,-0.0256 0.174666,-0.0698 -0.02212,-0.0221 -0.06176,-0.0343 -0.108003,-0.0362 z m -0.798401,0.7984 c -0.04624,-0.002 -0.09923,0.007 -0.147278,0.0258 -0.106188,0.0425 -0.07446,0.0746 0.08062,0.0806 0.140305,0.006 0.218887,-0.0261 0.174667,-0.0703 -0.02212,-0.0221 -0.06176,-0.0343 -0.108004,-0.0362 z m -36.996192,1.5813 c -0.0069,-0.007 -0.06083,0.033 -0.166398,0.11576 -0.128125,0.10048 -0.232544,0.20546 -0.232544,0.23306 0,0.10956 0.109288,0.0393 0.283187,-0.18242 0.08279,-0.10559 0.122627,-0.15952 0.115755,-0.1664 z m 26.261447,0.58291 c -0.014,0.014 -0.02315,0.0604 -0.02635,0.13798 -0.0058,0.14031 0.02554,0.21887 0.06976,0.17467 0.04422,-0.0442 0.04878,-0.15919 0.01034,-0.25529 -0.02125,-0.0531 -0.03975,-0.0713 -0.05374,-0.0574 z m -27.465507,0.48163 c -0.03661,0 -0.543229,0.47933 -1.125513,1.06505 -0.582285,0.58572 -1.028818,1.06505 -0.992188,1.06505 0.03661,0 0.543235,-0.47933 1.125513,-1.06505 0.582284,-0.58572 1.028818,-1.06505 0.992188,-1.06505 z m 42.604117,1.73064 c -0.0069,-0.007 -0.06083,0.0335 -0.166398,0.11627 -0.128125,0.10048 -0.23306,0.20546 -0.23306,0.23306 0,0.10957 0.109288,0.0388 0.283186,-0.18293 0.08279,-0.10559 0.123144,-0.15952 0.116272,-0.1664 z m -45.260286,1.06505 c -0.0069,-0.007 -0.06083,0.0335 -0.166398,0.11627 -0.128126,0.10048 -0.233061,0.20547 -0.233061,0.23307 0,0.10956 0.109282,0.0388 0.283187,-0.18294 0.08279,-0.10558 0.123143,-0.15952 0.116272,-0.1664 z m 28.391549,0.18345 c -0.01399,0.014 -0.02367,0.0604 -0.02687,0.13798 v 5.2e-4 c -0.0058,0.14031 0.02554,0.21886 0.06976,0.17466 0.04423,-0.0442 0.04929,-0.15918 0.01085,-0.25528 -0.02124,-0.0531 -0.03975,-0.0719 -0.05374,-0.0579 z m -9.185486,1.86346 c -0.014,0.014 -0.02316,0.061 -0.02635,0.13849 -0.0058,0.14032 0.02554,0.21887 0.06976,0.17467 0.04423,-0.0442 0.04878,-0.15919 0.01033,-0.25529 -0.02124,-0.0531 -0.03975,-0.0719 -0.05374,-0.0579 z m 24.893054,0.13332 c -0.014,0.014 -0.02316,0.0604 -0.02636,0.13798 v 5.1e-4 c -0.0058,0.14031 0.02554,0.21887 0.06976,0.17467 0.04422,-0.0442 0.04877,-0.15918 0.01033,-0.25528 -0.02125,-0.0531 -0.03975,-0.0719 -0.05374,-0.0579 z m 0.874365,0.48214 c -0.03661,0 -0.206835,0.14976 -0.378788,0.3328 -0.171957,0.18304 -0.283127,0.33279 -0.246497,0.33279 0.03661,0 0.207353,-0.14975 0.379305,-0.33279 0.171957,-0.18304 0.28261,-0.3328 0.24598,-0.3328 z m -1.330668,0.26614 c -0.03661,0 -0.207353,0.14975 -0.379305,0.33279 -0.171958,0.18303 -0.283126,0.3328 -0.246497,0.3328 0.03661,0 0.207349,-0.14977 0.379305,-0.3328 0.171948,-0.18304 0.283127,-0.33279 0.246497,-0.33279 z m 2.262911,1.19837 c -0.03661,0 -0.207348,0.14976 -0.379305,0.3328 -0.171953,0.18304 -0.28261,0.33279 -0.24598,0.33279 0.03661,0 0.206832,-0.14975 0.378788,-0.33279 0.171953,-0.18304 0.283127,-0.3328 0.246497,-0.3328 z m -10.908378,0.13281 c -0.03661,0 -0.300558,0.23941 -0.586528,0.53227 -0.285965,0.29286 -0.489832,0.53278 -0.453202,0.53278 0.03661,0 0.300558,-0.23992 0.586528,-0.53278 0.285969,-0.29286 0.489832,-0.53227 0.453202,-0.53227 z m 2.926953,0.26613 c -0.03661,0 -0.269949,0.20988 -0.518315,0.46613 -0.248371,0.25625 -0.421619,0.4656 -0.384989,0.4656 0.03661,0 0.269948,-0.20935 0.518315,-0.4656 0.248371,-0.25625 0.421619,-0.46613 0.384989,-0.46613 z m 6.65024,0 c -0.03661,0 -0.207352,0.14977 -0.379305,0.3328 -0.171957,0.18304 -0.28261,0.3328 -0.24598,0.3328 0.03661,0 0.206836,-0.14976 0.378789,-0.3328 0.171956,-0.18303 0.283126,-0.3328 0.246496,-0.3328 z m -8.647017,0.26614 c -0.03661,0 -0.269948,0.20986 -0.518315,0.46612 -0.248372,0.25625 -0.421619,0.46612 -0.384989,0.46612 0.03661,0 0.269948,-0.20987 0.518314,-0.46612 0.248371,-0.25626 0.42162,-0.46612 0.38499,-0.46612 z m -0.410311,2.26343 c -0.03661,0 -0.174958,0.1197 -0.307475,0.26613 -0.132518,0.14643 -0.210779,0.26613 -0.17415,0.26613 0.03661,0 0.174957,-0.1197 0.307475,-0.26613 0.132523,-0.14643 0.21078,-0.26613 0.17415,-0.26613 z m -11.652002,1.91409 c -0.014,0.014 -0.02316,0.0604 -0.02636,0.13798 -0.0058,0.14031 0.02553,0.21886 0.06976,0.17466 0.04422,-0.0442 0.04877,-0.15918 0.01033,-0.25528 -0.02124,-0.0531 -0.03975,-0.0713 -0.05374,-0.0574 z m 32.614025,0.39894 c -0.014,0.014 -0.0239,0.061 -0.0269,0.1385 -0.006,0.14032 0.0261,0.21886 0.0703,0.17466 0.0442,-0.0442 0.0487,-0.15918 0.0103,-0.25528 -0.0212,-0.0531 -0.0397,-0.0719 -0.0537,-0.0579 z m -0.13694,0.96222 c -0.0348,-0.009 -0.0931,-0.005 -0.1664,0.0139 -0.14653,0.0383 -0.26613,0.0923 -0.26613,0.12041 0,0.10501 0.38615,0.0467 0.45785,-0.0692 0.0205,-0.0332 0.009,-0.0559 -0.0253,-0.0651 z m -18.281569,1.66656 c -0.04624,-0.002 -0.09923,0.006 -0.147278,0.0253 -0.106188,0.0425 -0.07446,0.0746 0.08061,0.0806 0.140305,0.006 0.218887,-0.0256 0.174667,-0.0698 -0.02212,-0.0221 -0.06176,-0.0343 -0.108004,-0.0362 z m -0.931726,0.93173 c -0.04625,-0.002 -0.09923,0.007 -0.147278,0.0258 -0.106199,0.0425 -0.07446,0.0741 0.08061,0.0801 0.14031,0.006 0.218886,-0.0256 0.174667,-0.0698 -0.02212,-0.0221 -0.06176,-0.0343 -0.108004,-0.0362 z m -2.144055,0.11679 c -0.03661,0 -0.174957,0.1197 -0.307475,0.26613 -0.132522,0.14643 -0.211296,0.26614 -0.174667,0.26614 0.03661,0 0.174957,-0.11971 0.307475,-0.26614 0.132522,-0.14643 0.211297,-0.26613 0.174667,-0.26613 z m -10.586951,0.0501 c -0.014,0.014 -0.02367,0.061 -0.02687,0.1385 -0.0058,0.14031 0.02554,0.21886 0.06976,0.17466 0.04423,-0.0442 0.04929,-0.15918 0.01085,-0.25528 -0.02124,-0.0531 -0.03975,-0.0719 -0.05374,-0.0579 z m 1.064534,0.13333 c -0.014,0.014 -0.02316,0.0604 -0.02636,0.13798 -0.0058,0.14032 0.02554,0.21886 0.06976,0.17466 0.04423,-0.0442 0.04877,-0.15866 0.01033,-0.25476 -0.02124,-0.0531 -0.03975,-0.0719 -0.05374,-0.0579 z m 16.059485,0.23203 c -0.04624,-0.002 -0.09923,0.007 -0.147278,0.0258 -0.106198,0.0425 -0.07446,0.0746 0.08062,0.0806 0.140359,0.006 0.218886,-0.0261 0.174666,-0.0703 -0.02212,-0.0221 -0.06176,-0.0343 -0.108004,-0.0362 z m -8.800496,0.51624 c -0.03661,0 -0.174957,0.11971 -0.307475,0.26614 -0.132517,0.14643 -0.210779,0.26613 -0.174149,0.26613 0.03661,0 0.174957,-0.1197 0.307474,-0.26613 0.132523,-0.14643 0.21078,-0.26614 0.17415,-0.26614 z m 3.33313,0.13281 c -0.03661,0 -0.206837,0.14976 -0.378789,0.3328 -0.171957,0.18304 -0.283126,0.33279 -0.246496,0.33279 0.03661,0 0.207348,-0.14975 0.379305,-0.33279 0.171958,-0.18304 0.28261,-0.3328 0.24598,-0.3328 z m -2.39572,0.39946 c -0.03661,0 -0.207352,0.14976 -0.379305,0.3328 -0.171956,0.18303 -0.282609,0.33279 -0.245979,0.33279 0.03661,0 0.20683,-0.14976 0.378788,-0.33279 0.171957,-0.18304 0.283126,-0.3328 0.246496,-0.3328 z m 18.922878,0.28112 c -0.20509,0 -0.41028,0.007 -0.56586,0.0207 -0.31116,0.0281 -0.0565,0.0512 0.56586,0.0512 0.62235,0 0.8765,-0.0232 0.56534,-0.0512 -0.15558,-0.014 -0.36026,-0.0207 -0.56534,-0.0207 z m -2.092897,0.30179 c -0.014,0.014 -0.02367,0.0609 -0.02687,0.13849 -0.0058,0.14031 0.02606,0.21887 0.07028,0.17467 0.04423,-0.0442 0.04878,-0.15918 0.01034,-0.25528 -0.02125,-0.0531 -0.03975,-0.0719 -0.05374,-0.0579 z m 4.284497,0.0114 c -0.0241,-0.009 -0.0408,0.0674 -0.0408,0.20464 0,0.183 0.0303,0.2579 0.0672,0.1664 0.0369,-0.0915 0.0369,-0.2413 0,-0.3328 -0.009,-0.0229 -0.0183,-0.0352 -0.0264,-0.0382 z m 0.53278,0 c -0.0241,-0.009 -0.0413,0.0674 -0.0413,0.20464 0,0.183 0.0303,0.2579 0.0672,0.1664 0.0369,-0.0915 0.0369,-0.2413 0,-0.3328 -0.009,-0.0229 -0.0178,-0.0352 -0.0258,-0.0382 z m -20.848857,0.73691 c -0.03661,0 -0.207353,0.14975 -0.379305,0.33279 -0.171958,0.18303 -0.28261,0.3328 -0.24598,0.3328 0.03661,0 0.207349,-0.14977 0.379305,-0.3328 0.171948,-0.18304 0.28261,-0.33279 0.24598,-0.33279 z m -2.176094,0.19998 -0.432532,0.39068 c -0.237947,0.21504 -0.433049,0.40963 -0.433049,0.43253 0,0.10284 0.109937,0.0126 0.47439,-0.39067 z m 25.662001,0.25012 c -0.014,0.014 -0.0234,0.0604 -0.0264,0.13797 -0.006,0.14032 0.0256,0.21887 0.0698,0.17467 0.0442,-0.0442 0.0493,-0.15918 0.0109,-0.25528 -0.0212,-0.0531 -0.0402,-0.0713 -0.0543,-0.0574 z m -22.554181,0.0827 c -0.03661,0 -0.206835,0.14976 -0.378788,0.3328 -0.171957,0.18304 -0.283126,0.33279 -0.246497,0.33279 0.03661,0 0.207353,-0.14975 0.379305,-0.33279 0.171957,-0.18304 0.28261,-0.3328 0.24598,-0.3328 z m 22.953641,1.11518 c -0.014,0.014 -0.0234,0.0604 -0.0264,0.13797 -0.006,0.14032 0.0256,0.21939 0.0698,0.17519 0.0442,-0.0442 0.0487,-0.15918 0.0103,-0.25528 -0.0212,-0.0531 -0.0397,-0.0719 -0.0537,-0.0579 z m -25.487853,0.0827 c -0.03661,0 -0.174957,0.1197 -0.307475,0.26613 -0.132522,0.14643 -0.210779,0.26614 -0.174149,0.26614 0.03661,0 0.174957,-0.11971 0.307474,-0.26614 0.132522,-0.14643 0.21078,-0.26613 0.17415,-0.26613 z m 0.957048,0.53227 c -0.0069,-0.007 -0.06083,0.0335 -0.166399,0.11627 -0.128124,0.10048 -0.23306,0.20546 -0.23306,0.23306 0,0.10956 0.109282,0.0393 0.283187,-0.18242 0.08279,-0.10559 0.123143,-0.16004 0.116272,-0.16691 z m 13.311849,0.68161 c -0.08445,0 -0.168999,0.009 -0.233061,0.0253 -0.128125,0.0335 -0.02319,0.061 0.233061,0.061 0.256255,0 0.361191,-0.0275 0.23306,-0.061 -0.06406,-0.0168 -0.148614,-0.0253 -0.23306,-0.0253 z m 7.516856,0.57774 c -0.0241,-0.009 -0.0413,0.0679 -0.0413,0.20516 0,0.18299 0.0303,0.2579 0.0672,0.1664 0.0369,-0.0915 0.0369,-0.2413 0,-0.3328 -0.009,-0.0229 -0.0178,-0.0358 -0.0258,-0.0388 z m -6.185672,0.22221 c -0.06032,0 -0.120638,0.009 -0.166398,0.0279 -0.09152,0.0369 -0.01664,0.0672 0.166398,0.0672 0.183048,0 0.257918,-0.0303 0.166399,-0.0672 -0.04576,-0.0185 -0.10608,-0.0279 -0.166399,-0.0279 z m -57.602685,0.0331 c -0.014,0.014 -0.02367,0.061 -0.02687,0.1385 -0.0058,0.14032 0.02554,0.21886 0.06976,0.17466 0.04422,-0.0442 0.04929,-0.15918 0.01085,-0.25528 -0.02124,-0.0531 -0.03975,-0.0719 -0.05374,-0.0579 z m 66.122067,0.0977 c -0.18096,0 -0.36192,0.007 -0.4992,0.0212 -0.27455,0.0287 -0.0499,0.0522 0.4992,0.0522 0.54909,0 0.77374,-0.0235 0.49919,-0.0522 -0.13728,-0.0143 -0.31824,-0.0212 -0.49919,-0.0212 z m -11.048426,0.002 c -0.08445,0 -0.168998,0.008 -0.233061,0.0248 -0.128126,0.0335 -0.02319,0.061 0.233061,0.061 0.256256,0 0.360669,-0.0275 0.232544,-0.061 -0.06406,-0.0168 -0.148097,-0.0248 -0.232544,-0.0248 z m 3.897436,0.0341 c -0.01399,0.014 -0.02367,0.0604 -0.02687,0.13797 -0.0058,0.14032 0.02605,0.21887 0.07028,0.17467 0.04422,-0.0442 0.04877,-0.15866 0.01033,-0.25476 -0.02124,-0.0531 -0.03975,-0.0719 -0.05374,-0.0579 z m -6.38979,0.13281 c -0.014,0.014 -0.02316,0.0609 -0.02636,0.13849 -0.0058,0.14031 0.02554,0.21887 0.06976,0.17467 0.04423,-0.0442 0.04877,-0.15919 0.01033,-0.25529 -0.02124,-0.0531 -0.03975,-0.0719 -0.05374,-0.0579 z m 4.355806,0.76584 c -0.06032,0 -0.120638,0.009 -0.166398,0.0274 -0.09152,0.0369 -0.01664,0.0672 0.166398,0.0672 0.183048,0 0.257918,-0.0303 0.166398,-0.0672 -0.04576,-0.0185 -0.106079,-0.0274 -0.166398,-0.0274 z m 11.884544,0.0331 c -0.014,0.014 -0.0233,0.0605 -0.0263,0.13798 -0.006,0.14032 0.0256,0.21938 0.0698,0.17518 0.0442,-0.0442 0.0487,-0.15918 0.0103,-0.25528 -0.0213,-0.0531 -0.0397,-0.0719 -0.0538,-0.0579 z m -68.930158,0.0114 c -0.02408,-0.009 -0.04082,0.0674 -0.04082,0.20464 0,0.183 0.03025,0.2579 0.06718,0.1664 0.03693,-0.0915 0.03693,-0.2413 0,-0.3328 -0.0092,-0.0229 -0.01833,-0.0352 -0.02636,-0.0382 z m 55.304118,0.0879 c -0.04624,-0.002 -0.09923,0.007 -0.147278,0.0258 -0.106188,0.0425 -0.07446,0.0741 0.08062,0.0801 0.140304,0.006 0.218886,-0.0256 0.174666,-0.0698 -0.02212,-0.0221 -0.06176,-0.0343 -0.108004,-0.0362 z m 0.931726,0.79892 c -0.04609,-0.002 -0.09937,0.006 -0.147278,0.0253 -0.105293,0.0423 -0.07409,0.0746 0.08062,0.0806 0.140309,0.006 0.218896,-0.0256 0.174666,-0.0698 -0.02212,-0.0221 -0.06176,-0.0343 -0.108004,-0.0362 z m -56.362968,0.62477 c -0.02281,-0.0236 -0.03998,0.059 -0.04186,0.22376 h -5.16e-4 c -0.0027,0.21959 0.02502,0.32574 0.0615,0.23564 0.03655,-0.0901 0.03893,-0.26994 0.0052,-0.39946 -0.0084,-0.0324 -0.01669,-0.0521 -0.02429,-0.0599 z m 67.193832,0.0744 c -0.014,0.014 -0.0239,0.061 -0.0269,0.1385 -0.006,0.14032 0.0261,0.21886 0.0703,0.17466 0.0442,-0.0442 0.0487,-0.15918 0.0103,-0.25528 -0.0212,-0.0531 -0.0397,-0.0719 -0.0537,-0.0579 z m -21.735624,1.16272 c -0.15683,0 -0.313558,0.007 -0.432532,0.0217 -0.237947,0.0296 -0.04337,0.0537 0.432532,0.0537 0.4759,0 0.670478,-0.0242 0.432531,-0.0537 -0.118973,-0.0148 -0.275702,-0.0217 -0.432531,-0.0217 z m 24.664124,0.30179 c -0.014,0.014 -0.0239,0.0604 -0.0269,0.13798 -0.006,0.14031 0.0261,0.21887 0.0703,0.17467 0.0442,-0.0442 0.0487,-0.15867 0.0103,-0.25477 -0.0213,-0.0531 -0.0397,-0.0719 -0.0538,-0.0579 z m -0.37465,0.27751 c -0.0241,-0.009 -0.0408,0.0673 -0.0408,0.20463 0,0.18309 0.0303,0.2579 0.0672,0.1664 0.0369,-0.0915 0.0369,-0.24129 0,-0.33279 -0.009,-0.0229 -0.0183,-0.0352 -0.0263,-0.0382 z m -2.45773,0.0713 c -0.007,-0.007 -0.0608,0.0335 -0.1664,0.11627 -0.12812,0.10049 -0.23306,0.20546 -0.23306,0.23306 0,0.10956 0.10929,0.0388 0.28319,-0.18293 0.0828,-0.10559 0.12314,-0.15952 0.11627,-0.1664 z m 1.12654,0.19482 c -0.0241,-0.009 -0.0408,0.0674 -0.0408,0.20464 0,0.183 0.0303,0.2579 0.0672,0.1664 0.0369,-0.0915 0.0369,-0.2413 0,-0.3328 -0.009,-0.0229 -0.0183,-0.0352 -0.0264,-0.0382 z m -0.39894,0.13281 c -0.0241,-0.009 -0.0413,0.0679 -0.0413,0.20515 0,0.1831 0.0303,0.2579 0.0672,0.1664 0.0369,-0.0915 0.0369,-0.2413 0,-0.33279 -0.009,-0.0229 -0.0178,-0.0358 -0.0258,-0.0388 z m -21.079331,0.0863 c -0.168894,1.8e-4 -0.33298,0.008 -0.451136,0.0227 -0.236316,0.0294 -0.0102,0.0527 0.502295,0.0522 0.512507,-6e-4 0.705621,-0.0244 0.429431,-0.0532 -0.138094,-0.0145 -0.311697,-0.0219 -0.48059,-0.0217 z m 23.146911,0.65112 c -0.007,-0.007 -0.0608,0.0335 -0.1664,0.11627 -0.12813,0.10049 -0.23306,0.20546 -0.23306,0.23306 0,0.10956 0.10928,0.0388 0.28318,-0.18293 0.0828,-0.10559 0.12315,-0.15952 0.11628,-0.1664 z m -1.59526,0.39843 c -0.0112,0.005 0.0297,0.0597 0.11421,0.16743 0.10049,0.12812 0.24493,0.23306 0.32143,0.23306 0.0765,0 0.11421,-0.017 0.0837,-0.0377 -0.0305,-0.0207 -0.17551,-0.12565 -0.32194,-0.23306 -0.12312,-0.0903 -0.18618,-0.13477 -0.19741,-0.1297 z m -3.55947,0.45061 c -0.014,0.014 -0.0233,0.061 -0.0263,0.1385 -0.006,0.14031 0.0256,0.21886 0.0698,0.17466 0.0442,-0.0442 0.0493,-0.15918 0.0108,-0.25528 -0.0212,-0.0531 -0.0402,-0.0719 -0.0543,-0.0579 z m 4.35633,0.61547 c -0.007,0.007 0.033,0.0608 0.11575,0.1664 0.1739,0.2217 0.28319,0.29198 0.28319,0.18242 0,-0.0276 -0.10442,-0.13258 -0.23255,-0.23306 -0.10558,-0.0828 -0.15952,-0.12264 -0.16639,-0.11576 z m -69.286732,0.90744 c -0.02281,-0.0236 -0.03998,0.059 -0.04186,0.22376 h -5.16e-4 c -0.0027,0.21959 0.02502,0.32574 0.0615,0.23564 0.03655,-0.0901 0.03893,-0.26994 0.0052,-0.39946 -0.0084,-0.0324 -0.01669,-0.0521 -0.02429,-0.0599 z m 69.989012,0.87333 c -0.014,0.014 -0.0234,0.0604 -0.0264,0.13798 -0.006,0.14032 0.0256,0.21938 0.0698,0.17518 0.0442,-0.0442 0.0487,-0.15918 0.0103,-0.25528 -0.0213,-0.0531 -0.0397,-0.0719 -0.0537,-0.0579 z m -69.886692,0.66559 c -0.01399,0.014 -0.02367,0.0604 -0.02687,0.13798 -0.0058,0.14032 0.02606,0.21938 0.07028,0.17518 0.04422,-0.0442 0.04877,-0.15918 0.01033,-0.25528 -0.02125,-0.0531 -0.03975,-0.0719 -0.05374,-0.0579 z m 61.633442,0.93173 c -0.014,0.014 -0.0234,0.0609 -0.0264,0.13849 -0.006,0.14031 0.0256,0.21887 0.0698,0.17467 0.0442,-0.0442 0.0487,-0.15918 0.0103,-0.25528 -0.0212,-0.0531 -0.0397,-0.0719 -0.0537,-0.0579 z m -61.500117,0.13332 c -0.014,0.014 -0.02367,0.0604 -0.02687,0.13798 -0.0058,0.14032 0.02554,0.21887 0.06976,0.17467 0.04422,-0.0442 0.04929,-0.15867 0.01085,-0.25477 -0.02124,-0.0531 -0.03975,-0.0719 -0.05374,-0.0579 z m 60.593197,0.0109 c -0.0241,-0.009 -0.0408,0.0679 -0.0408,0.20515 0,0.183 0.0303,0.2579 0.0672,0.1664 0.0369,-0.0915 0.0369,-0.2413 0,-0.3328 -0.009,-0.0229 -0.0183,-0.0358 -0.0264,-0.0388 z m 1.70584,2.11873 c -0.014,0.014 -0.0239,0.061 -0.0269,0.13849 -0.006,0.14031 0.0261,0.21887 0.0703,0.17467 0.0442,-0.0442 0.0487,-0.15918 0.0103,-0.25528 -0.0213,-0.0531 -0.0397,-0.0719 -0.0538,-0.0579 z m 4.88808,0.34933 c -0.007,-0.007 -0.0608,0.033 -0.1664,0.11576 -0.12812,0.10049 -0.23306,0.20546 -0.23306,0.23306 0,0.10956 0.10928,0.0393 0.28318,-0.18242 0.0828,-0.10558 0.12315,-0.15952 0.11628,-0.1664 z m -1.53066,0.3328 0.39067,0.43253 h 5.2e-4 c 0.21504,0.23795 0.4845,0.4282 0.59893,0.4222 0.17885,-0.009 0.18028,-0.0206 0.008,-0.0832 -0.10982,-0.04 -0.37929,-0.23 -0.59893,-0.4222 z m 2.00763,0.11782 c -0.11727,0.0172 -0.28747,0.11139 -0.37827,0.20929 -0.1338,0.1442 -0.12722,0.15556 0.0346,0.0605 0.10982,-0.0646 0.23956,-0.11837 0.28836,-0.11937 0.0488,-0.001 0.12888,-0.0426 0.17828,-0.092 0.0494,-0.0496 -0.006,-0.0756 -0.12299,-0.0584 z m -2.76521,0.88057 c -0.0366,0 -0.17496,0.1197 -0.30747,0.26613 -0.13249,0.14643 -0.21127,0.26613 -0.17467,0.26613 0.0366,0 0.17547,-0.1197 0.30799,-0.26613 0.13248,-0.14643 0.21075,-0.26613 0.17415,-0.26613 z m -3.61011,0.66766 c -0.0952,10e-4 -0.0786,0.0532 0.0413,0.13074 0.25578,0.16527 0.30161,0.16527 0.19947,0 -0.0453,-0.0732 -0.15361,-0.13174 -0.24081,-0.13074 z m 5.66942,0.0481 c -0.014,0.014 -0.0239,0.0609 -0.0269,0.13849 -0.006,0.14032 0.0261,0.21887 0.0703,0.17467 0.0442,-0.0442 0.0487,-0.15919 0.0103,-0.25529 -0.0212,-0.0531 -0.0397,-0.0719 -0.0537,-0.0579 z m -1.46451,0.13332 c -0.014,0.014 -0.0234,0.0604 -0.0264,0.13798 -0.006,0.14031 0.0256,0.21886 0.0698,0.17466 0.0442,-0.0442 0.0487,-0.15866 0.0103,-0.25476 -0.0212,-0.0531 -0.0397,-0.0719 -0.0537,-0.0579 z m 0.53227,0 c -0.014,0.014 -0.0234,0.0604 -0.0264,0.13798 -0.006,0.14031 0.0256,0.21886 0.0698,0.17466 0.0442,-0.0442 0.0493,-0.15866 0.0109,-0.25476 -0.0212,-0.0531 -0.0402,-0.0719 -0.0543,-0.0579 z m 0.55759,0.14418 c -0.0241,-0.009 -0.0408,0.0674 -0.0408,0.20464 0,0.18309 0.0303,0.2579 0.0672,0.1664 0.0369,-0.0915 0.0369,-0.2413 0,-0.3328 -0.009,-0.0229 -0.0183,-0.0352 -0.0263,-0.0382 z m -4.81728,0.38809 c -0.014,0.014 -0.0234,0.061 -0.0264,0.13849 -0.006,0.14032 0.0256,0.21887 0.0698,0.17467 0.0442,-0.0442 0.0487,-0.15918 0.0103,-0.25528 -0.0212,-0.0531 -0.0397,-0.0719 -0.0537,-0.0579 z m 2.35903,0.0827 c -0.007,-0.007 -0.0608,0.0335 -0.1664,0.11627 -0.12813,0.10048 -0.23254,0.20546 -0.23254,0.23306 0,0.10956 0.10927,0.0388 0.28318,-0.18293 0.0828,-0.10559 0.12263,-0.15952 0.11576,-0.1664 z m 2.86391,0.59583 c -0.0224,0.009 -0.0238,0.0336 -5.2e-4,0.0713 0.0448,0.0723 0.13738,0.13178 0.20619,0.13178 0.19152,0 0.14949,-0.0955 -0.0811,-0.18397 -0.0591,-0.0228 -0.10219,-0.0284 -0.12454,-0.0191 z m -1.95699,0.73536 c -0.0366,0 -0.17496,0.12022 -0.30748,0.26665 -0.13248,0.14643 -0.21126,0.26613 -0.17466,0.26613 0.0366,0 0.17496,-0.1197 0.30747,-0.26613 0.13249,-0.14643 0.21127,-0.26665 0.17467,-0.26665 z m -5.661671,0.31677 c -0.014,0.014 -0.02367,0.0604 -0.02687,0.13798 v 5.2e-4 c -0.0058,0.1403 0.02554,0.21886 0.06976,0.17466 0.04423,-0.0442 0.04929,-0.15918 0.01085,-0.25528 -0.02124,-0.0531 -0.03975,-0.0719 -0.05374,-0.0579 z m 1.939421,0.0827 c -0.0366,0 -0.20735,0.14977 -0.37931,0.3328 -0.17199,0.18304 -0.28258,0.3328 -0.24598,0.3328 0.0366,0 0.20735,-0.14976 0.37931,-0.3328 0.17198,-0.18303 0.28258,-0.3328 0.24598,-0.3328 z m 3.72225,0.39946 c -0.0366,0 -0.17496,0.11971 -0.30748,0.26614 -0.13248,0.14643 -0.21126,0.26613 -0.17466,0.26613 0.0366,0 0.17496,-0.1197 0.30747,-0.26613 0.13249,-0.14643 0.21127,-0.26614 0.17467,-0.26614 z m -2.17144,0.73226 0.25373,0.2992 c 0.13947,0.16473 0.2739,0.29973 0.2992,0.29973 0.10652,0 0.0283,-0.10741 -0.25321,-0.34572 z m -1.68931,0.0667 c -0.0366,0 -0.17495,0.1197 -0.30747,0.26613 -0.13248,0.14643 -0.21075,0.26614 -0.17415,0.26614 0.0366,0 0.17495,-0.11971 0.30747,-0.26614 0.13248,-0.14643 0.21075,-0.26613 0.17415,-0.26613 z m 1.08056,0.26613 c -0.0366,0 -0.36187,0.29953 -0.72244,0.6656 -0.36057,0.36608 -0.62571,0.66559 -0.58911,0.66559 0.0366,0 0.36187,-0.29951 0.72244,-0.66559 0.36057,-0.36607 0.62571,-0.6656 0.58911,-0.6656 z m 5.93865,0.16382 c -0.0207,-0.0161 -0.0357,0.12136 -0.0357,0.36845 0,0.32942 0.0261,0.46445 0.0579,0.29973 0.0317,-0.16474 0.0317,-0.4342 0,-0.59893 -0.008,-0.0412 -0.0153,-0.0639 -0.0222,-0.0693 z m -1.3348,0.61443 c -0.0218,-0.0126 -0.0372,0.0946 -0.0372,0.28681 0,0.25625 0.0275,0.36067 0.061,0.23254 0.0335,-0.12813 0.0335,-0.33748 0,-0.4656 -0.008,-0.032 -0.0165,-0.0496 -0.0238,-0.0537 z m -0.65681,0.20154 c -0.019,-0.0381 -0.0327,0.16649 -0.0331,0.55087 -6e-4,0.51255 0.0228,0.73862 0.0522,0.5023 0.0293,-0.23631 0.0298,-0.65554 0.001,-0.93173 -0.007,-0.069 -0.0138,-0.10874 -0.0202,-0.12144 z m -1.86397,0.003 c -0.0187,-0.0269 -0.0315,0.2026 -0.0315,0.61443 0,0.5491 0.0235,0.77375 0.0522,0.4992 0.0287,-0.27456 0.0287,-0.72384 0,-0.99839 -0.007,-0.0686 -0.0144,-0.10627 -0.0207,-0.11524 z m 3.38481,0.21497 c -0.007,-0.007 -0.0608,0.0335 -0.1664,0.11628 -0.12812,0.10048 -0.23306,0.20546 -0.23306,0.23306 0,0.10956 0.10929,0.0388 0.28319,-0.18294 0.0828,-0.10558 0.12315,-0.15952 0.11627,-0.1664 z m -4.68447,1.46451 c -0.0366,0 -0.17495,0.11971 -0.30747,0.26614 -0.13248,0.14643 -0.21127,0.26613 -0.17467,0.26613 0.0366,0 0.17497,-0.1197 0.30748,-0.26613 0.13249,-0.14643 0.21126,-0.26614 0.17466,-0.26614 z m 1.48932,0.13281 c -0.007,0.007 0.0335,0.0608 0.11627,0.1664 0.17391,0.2217 0.28319,0.2925 0.28319,0.18294 0,-0.0276 -0.10495,-0.13258 -0.23307,-0.23307 -0.10558,-0.0828 -0.15952,-0.12314 -0.16639,-0.11627 z m 1.19837,0.13333 c -0.007,-0.007 -0.0608,0.0335 -0.1664,0.11627 -0.12811,0.10048 -0.23306,0.20546 -0.23306,0.23306 0,0.10956 0.10929,0.0388 0.28319,-0.18293 0.0828,-0.10559 0.12315,-0.15953 0.11627,-0.1664 z m -2.52956,0.39946 c -0.007,-0.007 -0.0608,0.0335 -0.1664,0.11627 -0.12812,0.10049 -0.23306,0.20494 -0.23306,0.23254 0,0.10956 0.10929,0.0393 0.28319,-0.18242 0.0828,-0.10558 0.12315,-0.15952 0.11627,-0.16639 z m 0.37931,0.26613 c -0.0366,0 -0.20736,0.14976 -0.37931,0.3328 -0.17199,0.18303 -0.28258,0.33279 -0.24598,0.33279 0.0366,0 0.20735,-0.14976 0.37931,-0.33279 0.17198,-0.18304 0.28258,-0.3328 0.24598,-0.3328 z m 0.12815,0.39946 c -0.0366,0 -0.17495,0.1197 -0.30747,0.26613 -0.13248,0.14643 -0.21127,0.26614 -0.17467,0.26614 0.0366,0 0.17496,-0.11971 0.30748,-0.26614 0.13248,-0.14643 0.21126,-0.26613 0.17466,-0.26613 z m 1.92598,0.18345 c -0.014,0.014 -0.0239,0.0604 -0.0269,0.13798 -0.006,0.14031 0.0261,0.21886 0.0703,0.17466 0.0442,-0.0442 0.0487,-0.15866 0.0103,-0.25476 -0.0212,-0.0531 -0.0397,-0.0719 -0.0537,-0.0579 z m 1.00253,0.0827 c -0.0366,0 -0.17496,0.11971 -0.30748,0.26614 -0.13248,0.14643 -0.21126,0.26613 -0.17466,0.26613 0.0366,0 0.17495,-0.1197 0.30747,-0.26613 0.13248,-0.14643 0.21127,-0.26614 0.17467,-0.26614 z m 0.26613,0.26614 c -0.0366,0 -0.17496,0.1197 -0.30747,0.26613 -0.13249,0.14643 -0.21127,0.26665 -0.17467,0.26665 0.0366,0 0.17547,-0.12022 0.30799,-0.26665 0.13249,-0.14643 0.21075,-0.26613 0.17415,-0.26613 z m -1.83813,1.19837 c -0.007,-0.007 -0.0608,0.033 -0.1664,0.11576 -0.12813,0.10048 -0.23306,0.20546 -0.23306,0.23306 0,0.10956 0.10929,0.0393 0.28319,-0.18242 0.0828,-0.10559 0.12315,-0.15952 0.11627,-0.1664 z m -2.28875,0.93173 c -0.0366,0 -0.17495,0.1197 -0.30747,0.26613 -0.13248,0.14643 -0.21075,0.26614 -0.17415,0.26614 0.0366,0 0.17495,-0.11971 0.30747,-0.26614 0.13248,-0.14643 0.21075,-0.26613 0.17415,-0.26613 z m 0.15865,0.39946 c -0.007,-0.007 -0.0608,0.033 -0.1664,0.11575 -0.12812,0.10048 -0.23306,0.20546 -0.23306,0.23306 0,0.10956 0.10928,0.0393 0.28319,-0.18241 0.0828,-0.10559 0.12314,-0.15953 0.11627,-0.1664 z m -1.60869,0.68161 c -0.0462,-0.002 -0.0987,0.007 -0.14676,0.0258 -0.10622,0.0425 -0.0744,0.0746 0.0806,0.0806 0.14032,0.006 0.21887,-0.0261 0.17467,-0.0703 -0.0221,-0.0221 -0.0623,-0.0343 -0.10852,-0.0362 z m 0.32194,0.15761 c -0.002,0.0286 0.0333,0.12117 0.10542,0.29197 0.0927,0.21965 0.22408,0.47436 0.29198,0.56586 0.0679,0.0915 0.14443,0.1664 0.17053,0.1664 0.089,0 -0.26148,-0.73157 -0.44649,-0.93173 -0.079,-0.0854 -0.11915,-0.12107 -0.12144,-0.0925 z m 2.19419,0.29249 c -0.16661,0.0176 -0.64131,0.49242 -0.64131,0.68006 0,0.0924 0.1677,0.007 0.37259,-0.18965 0.2049,-0.19667 0.34844,-0.40727 0.31884,-0.46767 -0.009,-0.0183 -0.0263,-0.0253 -0.0501,-0.0227 z m -1.10536,1.50637 c -0.0227,-0.0236 -0.0401,0.059 -0.0424,0.22376 -0.003,0.21958 0.025,0.32574 0.0615,0.23564 0.0365,-0.0901 0.0384,-0.26994 0.005,-0.39946 -0.008,-0.0324 -0.0162,-0.0521 -0.0238,-0.0599 z m -1.02526,0.42323 c -0.0366,0 -0.17496,0.1197 -0.30748,0.26613 -0.13248,0.14643 -0.21126,0.26665 -0.17466,0.26665 0.0366,0 0.17495,-0.12022 0.30747,-0.26665 0.13248,-0.14643 0.21127,-0.26613 0.17467,-0.26613 z m 0.93172,0.26613 c -0.0366,0 -0.17495,0.12021 -0.30747,0.26665 -0.13248,0.14643 -0.21127,0.26614 -0.17467,0.26614 0.0366,0 0.17496,-0.11971 0.30748,-0.26614 0.13248,-0.14644 0.21126,-0.26665 0.17466,-0.26665 z m -54.287123,0.26665 c -0.0069,0.007 0.03348,0.0608 0.116272,0.1664 0.173904,0.2218 0.283187,0.29198 0.283187,0.18242 0,-0.0276 -0.104936,-0.13258 -0.233061,-0.23306 -0.105564,-0.0828 -0.159527,-0.12263 -0.166398,-0.11576 z m 0.732255,0.86507 0.322978,0.36587 c 0.177497,0.20134 0.342019,0.36638 0.365869,0.36638 0.104398,0 0.01969,-0.10765 -0.322461,-0.40928 z m 2.66237,2.66237 0.322978,0.36587 c 0.177497,0.20134 0.342019,0.36638 0.365869,0.36638 0.104403,0 0.01969,-0.10765 -0.322461,-0.40928 z m 1.264522,1.13171 c -0.0069,0.007 0.03348,0.0608 0.116272,0.1664 0.100484,0.12812 0.205441,0.23254 0.233061,0.23254 0.109561,0 0.03881,-0.10928 -0.182934,-0.28318 -0.105567,-0.0828 -0.159527,-0.12264 -0.166399,-0.11576 z m 4.208012,3.2365 c -0.05239,-0.0118 -0.08113,-0.008 -0.08113,0.0145 0,0.0893 -0.898555,2.0984 -1.996777,4.46484 -1.098221,2.36644 -1.996777,4.35754 -1.996777,4.42454 0,0.27753 0.376872,-0.20217 2.821016,-3.59307 1.409564,-1.95556 2.713944,-3.70751 2.899048,-3.8933 l 0.33693,-0.33796 -1.031978,-0.6134 c -0.425559,-0.25311 -0.793162,-0.43086 -0.95033,-0.46612 z m 26.664523,5.29941 c -0.04625,-0.002 -0.09923,0.007 -0.147278,0.0258 -0.106198,0.0425 -0.07446,0.0741 0.08061,0.0801 0.14031,0.006 0.218886,-0.0256 0.174666,-0.0698 -0.02212,-0.0221 -0.06176,-0.0343 -0.108003,-0.0362 z m -10.516154,0.26614 c -0.04624,-0.002 -0.09923,0.006 -0.147278,0.0253 -0.106199,0.0425 -0.07446,0.0746 0.08061,0.0806 0.140304,0.006 0.218896,-0.0256 0.174666,-0.0698 -0.02211,-0.0221 -0.06176,-0.0343 -0.108003,-0.0362 z m 8.530228,0.001 c -0.06032,0 -0.120638,0.009 -0.166398,0.0274 -0.09152,0.0369 -0.01664,0.0672 0.166398,0.0672 0.183048,0 0.257918,-0.0303 0.166398,-0.0672 -0.04576,-0.0185 -0.106078,-0.0274 -0.166398,-0.0274 z m -7.070886,0.13229 c -0.07238,-9e-4 -0.149698,0.007 -0.214457,0.0238 v 5.2e-4 c -0.129519,0.0337 -0.05583,0.0631 0.163814,0.0661 0.219641,0.003 0.325775,-0.025 0.235645,-0.0615 -0.04506,-0.0183 -0.112619,-0.028 -0.185002,-0.0289 z m 5.723682,0 c -0.07238,-9e-4 -0.149698,0.007 -0.214457,0.0238 v 5.2e-4 c -0.129519,0.0337 -0.05532,0.0631 0.164331,0.0661 0.219636,0.003 0.325257,-0.025 0.235127,-0.0615 -0.04506,-0.0183 -0.112618,-0.028 -0.185001,-0.0289 z m -30.538188,3.73414 c -1.090932,0.0477 -1.342456,0.10917 -2.222603,0.54415 -1.215183,0.60058 -2.087076,1.49109 -2.674256,2.73059 -0.36823,0.77732 -0.430148,1.06498 -0.469738,2.18798 -0.06978,1.97865 0.474121,3.30832 1.864485,4.55838 1.73188,1.5571 4.119636,1.90785 6.330363,0.93017 0.635344,-0.28099 0.775984,-0.30293 0.957048,-0.14883 1.610058,1.37024 4.693208,3.95732 4.988842,4.18579 0.884048,0.6832 0.640294,0.34136 -1.816943,-2.54816 -1.154133,-1.35716 -2.13071,-2.55217 -2.17041,-2.65565 -0.03971,-0.10347 0.104112,-0.45062 0.319877,-0.77153 1.196612,-1.77969 1.353282,-3.82602 0.441317,-5.77484 -1.033007,-2.2075 -2.990116,-3.34993 -5.547982,-3.23805 z m 10.904761,15.31431 c -1.274105,-0.003 -1.974354,1.77731 -0.894519,2.62672 v 0.001 c 0.465831,0.36573 1.354248,0.3645 1.821594,-0.003 0.931486,-0.73271 0.510153,-2.37936 -0.665076,-2.59984 -0.08968,-0.0168 -0.177059,-0.0246 -0.261999,-0.0248 z"
         sodipodi:nodetypes="sssssssssccssccssccsssssccsscssscscsscssssccssssssssssscssccsssccsssccsssccssssssssssssssssssssssssssssssssssssssssssssssssssssssssssssssssssssssssssssssssssssssssssssssssssssscsssscssssssssssssssssssccssssssssssssscsssscsssssssssssssssssssssscccscsscssssssssscssssssssssssssssssssssssssssssssssssssssssssscssssssssssssscsssssssssscsssscssssccssscssssccssscsssssssssssssssssssssssssccssssssssssssscssssssssscccssscssssssssscssssssssssssssssssssscscccccccscsccsssscscsscscsssscsssscssssssssscssssssssscscssssssssssssssssssssssccsscsssssssssssscssscsssscssssssssssssssssssssssssssssssssssssssssssssssssssssssssssssssssssssssssssccsssssssssssssscsssssssssssssscsssccsscccssssssssssssscccssccsssccssssssssscccssscccsssssssssssssscccsscsssccsscccssccssscssssscccsscccscccccsccscscssccscsssccscsssssssssssssssccccscc" /><path
         style="fill:#124a5e;stroke-width:0.133118"
         d="M 55.461394,188.01347 C 49.36594,187.43507 43.292875,185.29013 38.17756,181.90899 25.597562,173.59383 19.146299,158.7189 21.662172,143.82881 c 1.023639,-6.05837 3.627332,-11.91533 7.574666,-17.03911 1.449041,-1.88091 4.956398,-5.31315 6.959961,-6.8109 1.691571,-1.26452 2.561541,-1.81889 2.672234,-1.70282 0.03185,0.0334 -0.113586,0.58474 -0.323187,1.22519 -0.685722,2.09527 -0.849609,3.25247 -0.843722,5.95735 0.0045,2.02983 0.05743,2.705 0.301612,3.84133 0.693218,3.22597 2.102205,6.46728 4.121878,9.48222 1.594201,2.37981 2.891872,3.90228 5.436171,6.37792 2.41152,2.34644 4.240086,3.80942 7.766487,6.21371 5.309309,3.61987 8.120249,5.88457 11.525981,9.28618 3.486312,3.4821 5.521883,6.1751 7.049753,9.32662 1.546228,3.18938 2.100771,5.47387 2.100353,8.65267 -2.62e-4,2.19757 -0.121997,3.05063 -0.72577,5.08686 l -0.284718,0.96019 -1.413082,0.59229 c -3.181399,1.33348 -6.996809,2.29576 -10.632438,2.6816 -1.939842,0.20587 -5.604456,0.23199 -7.486957,0.0534 z m 26.860459,-13.21799 c -0.036,-0.18818 0.002,-0.47679 0.0838,-0.64135 0.19599,-0.3931 0.96778,-0.90623 1.36304,-0.90623 0.26556,0 0.31311,0.0668 0.31311,0.43979 0,0.53672 -0.66348,1.24373 -1.28354,1.36774 -0.364,0.0728 -0.41844,0.0431 -0.47637,-0.25995 z m 1.04848,-0.42286 c 0.44774,-0.3415 0.59262,-0.72537 0.27377,-0.72537 -0.28904,0 -1.0803,0.73729 -0.97467,0.9082 0.1349,0.21828 0.19587,0.20238 0.7009,-0.18283 z m -1.15222,-0.83786 c 0,-0.13508 0.12244,-0.35641 0.2721,-0.49185 0.34852,-0.31541 0.28643,-0.74073 -0.13898,-0.95206 -0.18304,-0.0909 -0.3328,-0.24218 -0.3328,-0.33612 0,-0.24968 0.89384,-0.14882 1.09823,0.12393 0.27865,0.37186 0.19829,1.04467 -0.17823,1.49214 -0.38624,0.45901 -0.72032,0.53506 -0.72032,0.16396 z m 2.39613,-0.25725 c 0,-0.49945 0.33941,-0.94998 0.88852,-1.17942 0.54962,-0.22964 0.7089,-0.15215 0.7089,0.34487 0,0.54001 -0.6536,1.20429 -1.18492,1.20429 -0.36225,0 -0.4125,-0.045 -0.4125,-0.36974 z m 0.95462,-0.24993 c 0.27403,-0.24799 0.32402,-0.57839 0.0875,-0.57839 -0.22101,0 -0.64279,0.4066 -0.64279,0.61966 0,0.24444 0.261,0.22504 0.55527,-0.0413 z m -2.01031,-0.5611 c -0.26247,-0.49042 -0.16475,-1.04749 0.27077,-1.54352 0.28647,-0.32627 0.52636,-0.47054 0.78241,-0.47054 0.43669,0 0.6012,0.17753 0.71351,0.77001 0.0702,0.37026 0.017,0.50642 -0.34734,0.88908 -0.5429,0.5702 -1.2143,0.73811 -1.41935,0.35497 z m 1.11149,-0.4849 c 0.48319,-0.44781 0.44203,-1.04415 -0.0762,-1.10413 -0.41676,-0.0482 -0.7783,0.37615 -0.7783,0.91358 0,0.6267 0.30944,0.69571 0.85451,0.19055 z m 1.302,-0.75708 c -0.50102,-0.50102 0.13931,-1.6397 0.97176,-1.72808 0.38056,-0.0404 0.40124,-0.0166 0.4394,0.50511 0.0677,0.92601 -0.88364,1.75049 -1.41116,1.22297 z m 0.95424,-0.64515 c 0.18486,-0.31294 0.20439,-0.44789 0.0855,-0.59111 -0.20469,-0.24665 -0.50314,-0.11657 -0.72025,0.31391 -0.36298,0.71973 0.22232,0.97535 0.63473,0.2772 z m -5.18328,0.39065 c -0.118888,-0.19236 0.18422,-0.37985 0.61831,-0.38243 0.18857,-0.001 0.47651,-0.14429 0.63984,-0.31815 0.24499,-0.26078 0.28983,-0.44052 0.25616,-1.02679 -0.0395,-0.68843 -0.0548,-0.71352 -0.48741,-0.80143 -0.4738,-0.0963 -0.66246,0.0203 -1.10484,0.68293 -0.171101,0.25626 -0.256793,0.29473 -0.383892,0.17231 -0.128774,-0.12402 -0.0897,-0.28374 0.183454,-0.74983 0.190895,-0.32574 0.427478,-0.6231 0.525738,-0.6608 0.0983,-0.0377 0.53414,0.003 0.96863,0.0893 l 0.78998,0.15787 0.0373,0.99331 c 0.0353,0.94049 0.0153,1.01987 -0.37576,1.49251 -0.36214,0.43762 -0.48482,0.49919 -0.99458,0.49919 -0.31981,0 -0.62264,-0.0666 -0.67295,-0.148 z m 3.07091,-1.088 c -0.51453,-0.17406 -0.59451,-0.30714 -0.59699,-0.99334 -0.002,-0.46416 0.0841,-0.66076 0.47936,-1.09822 0.26478,-0.29307 0.54007,-0.53286 0.61177,-0.53286 0.0717,0 0.30434,0.12389 0.51698,0.2753 0.33476,0.23837 0.38663,0.36096 0.38663,0.91388 0,1.01885 -0.65139,1.68771 -1.39775,1.43524 z m 0.78688,-0.63786 c 0.39002,-0.46352 0.44908,-1.06438 0.13544,-1.37802 -0.27688,-0.27688 -0.37951,-0.26492 -0.77498,0.0903 -0.44526,0.39998 -0.54437,1.10055 -0.20386,1.44105 0.34354,0.34354 0.44005,0.32599 0.8434,-0.15336 z m 1.28462,-0.44586 c -0.0867,-0.10441 -0.13892,-0.44276 -0.11614,-0.75188 0.0341,-0.4619 0.12814,-0.63203 0.52818,-0.95488 0.45381,-0.36625 0.51239,-0.38045 0.86527,-0.20966 0.33607,0.16266 0.37349,0.24248 0.33378,0.71209 -0.0797,0.94224 -1.159,1.74906 -1.61109,1.20433 z m 0.96801,-0.45121 c 0.33832,-0.37384 0.43692,-1.06641 0.1666,-1.17014 -0.40894,-0.15693 -1.09168,0.67746 -0.9415,1.15063 0.10393,0.32744 0.48748,0.3371 0.7749,0.0195 z m -4.97424,-0.94605 c -0.25874,-0.0507 -0.53627,-0.13287 -0.61674,-0.1826 -0.0805,-0.0497 -0.2178,-0.57939 -0.30518,-1.17702 l -0.15889,-1.0866 0.97197,-0.9785 c 0.53458,-0.53817 1.01105,-0.97849 1.05883,-0.97849 0.0478,0 0.36377,0.33634 0.7022,0.74744 0.60864,0.7393 0.61534,0.75814 0.61534,1.73015 0,0.94214 -0.0199,1.0047 -0.4814,1.51556 -0.50849,0.56284 -0.73779,0.61548 -1.78613,0.41006 z m 1.45916,-0.76042 c 0.21544,-0.27389 0.2759,-0.54212 0.2759,-1.22406 0,-0.76637 -0.0438,-0.91903 -0.3577,-1.24667 -0.19674,-0.20535 -0.42363,-0.37336 -0.5042,-0.37336 -0.0806,0 -0.43404,0.29194 -0.78549,0.64875 l -0.63898,0.64874 0.091,0.72855 c 0.12945,1.03614 0.23142,1.13848 1.15402,1.15829 0.3776,0.008 0.55262,-0.0697 0.76543,-0.34024 z m 1.83166,0.1105 c -0.32726,-0.34158 -0.3577,-0.46397 -0.3577,-1.43818 0,-1.02974 0.0145,-1.07885 0.43897,-1.49029 0.24144,-0.23401 0.52986,-0.42547 0.64094,-0.42547 0.3676,0 0.65062,0.86369 0.65062,1.98548 0,1.03357 -0.005,1.04833 -0.45703,1.39323 -0.25136,0.19172 -0.47977,0.34859 -0.50756,0.34859 -0.0278,0 -0.21151,-0.16801 -0.40824,-0.37336 z m 0.86316,-0.37942 c 0.18761,-0.16978 0.24344,-0.416 0.24344,-1.07369 0,-1.30685 -0.28263,-1.64949 -0.88997,-1.07892 -0.25443,0.23903 -0.3081,0.42604 -0.3081,1.0737 0,1.20158 0.36422,1.61322 0.95463,1.07891 z m 1.07543,-0.66656 c -0.24292,-0.098 -0.21338,-1.38294 0.0401,-1.74484 0.31072,-0.44361 0.65185,-0.58447 1.04941,-0.43331 0.3064,0.11649 0.34151,0.20126 0.34151,0.82472 0,0.57273 -0.0629,0.76051 -0.3577,1.06824 -0.3351,0.34976 -0.68373,0.44239 -1.07332,0.28519 z m 0.95756,-0.60705 c 0.28004,-0.39983 0.27204,-1.15192 -0.0134,-1.26147 -0.45731,-0.17549 -1.11712,1.10701 -0.75554,1.46858 0.18272,0.18273 0.56873,0.0788 0.76897,-0.20711 z m -7.702173,-1.72061 c -0.503681,-0.67466 -0.510323,-0.69891 -0.428143,-1.56413 0.138143,-1.45444 0.273694,-1.76311 1.018446,-2.31911 0.99169,-0.74037 0.99077,-0.74044 1.53819,0.11531 l 0.48762,0.76227 -0.17086,0.99888 c -0.16195,0.94673 -0.21222,1.04309 -0.96282,1.84548 -0.43556,0.46562 -0.83219,0.84659 -0.88138,0.84659 -0.0492,0 -0.319666,-0.30838 -0.601053,-0.68529 z m 1.276343,-0.9219 c 0.50245,-0.62079 0.7162,-1.72504 0.43804,-2.26295 -0.24905,-0.4816 -0.35083,-0.48437 -0.8658,-0.0235 -0.34362,0.30747 -0.4329,0.5201 -0.557772,1.32834 -0.134908,0.87319 -0.125862,0.98747 0.09777,1.23458 0.30515,0.33719 0.4201,0.3014 0.88776,-0.27641 z m 2.38113,0.86122 c -0.63936,-0.53798 -0.70105,-0.73769 -0.53048,-1.71717 0.14688,-0.84345 0.17799,-0.89229 1.10231,-1.73017 0.52314,-0.47423 1.01107,-0.86156 1.08429,-0.86074 0.0732,0.001 0.28121,0.11528 0.46222,0.25438 0.30463,0.23408 0.32617,0.325 0.28952,1.22252 -0.0466,1.14153 -0.11008,1.28416 -0.99955,2.24597 -0.90577,0.97943 -0.92856,0.9889 -1.40831,0.58521 z m 1.23107,-1.13111 c 0.51913,-0.59343 0.602,-0.77378 0.65757,-1.43101 0.10969,-1.29732 -0.0146,-1.35154 -1.03721,-0.45249 -0.6203,0.54533 -0.73961,0.72982 -0.86735,1.34124 -0.12933,0.61905 -0.11872,0.74141 0.0837,0.9651 0.346,0.38234 0.51156,0.32216 1.16326,-0.42284 z m 2.13592,-0.51815 c -0.42596,-0.17187 -0.46343,-0.30497 -0.36269,-1.28823 0.0848,-0.8273 0.14,-0.95065 0.6881,-1.53662 0.662,-0.70773 0.79182,-0.7485 1.23659,-0.38835 0.29926,0.24233 0.30289,0.27223 0.14017,1.15535 -0.11916,0.64673 -0.28786,1.06189 -0.58854,1.44848 -0.60991,0.78415 -0.63984,0.80053 -1.11363,0.60937 z m 0.45289,-0.37723 c 0.41853,-0.26573 0.82112,-1.02594 0.9069,-1.71253 0.13566,-1.08574 -0.0777,-1.19426 -0.81548,-0.41485 -0.5492,0.58019 -0.59121,0.67556 -0.59121,1.34228 0,0.86592 0.10722,1.03434 0.49979,0.7851 z m -10.655431,-2.14066 c -0.766946,-0.50548 -1.429776,-0.97622 -1.472954,-1.04608 -0.06563,-0.10619 0.634564,-2.70865 0.90375,-3.35906 0.04543,-0.10983 0.895786,-0.61729 1.889625,-1.12771 2.071228,-1.06374 1.743267,-1.12727 2.787,0.53985 0.32471,0.51865 0.59051,1.08773 0.59065,1.26462 1.3e-4,0.17689 -0.0959,0.84563 -0.21344,1.48608 l -0.21372,1.16445 -1.277046,0.89888 c -0.702381,0.49437 -1.349583,0.94368 -1.438233,0.99844 -0.09653,0.0596 -0.720543,-0.26909 -1.555632,-0.81947 z m 2.368643,-0.75943 c 1.06956,-0.74768 1.194638,-0.93618 1.389328,-2.09381 0.15227,-0.90539 0.15074,-0.91458 -0.25951,-1.55391 -0.226983,-0.35371 -0.484285,-0.70249 -0.571783,-0.77505 -0.110768,-0.0919 -0.563398,0.0769 -1.490267,0.55552 l -1.331178,0.68745 -0.318563,1.15226 c -0.175212,0.63375 -0.281875,1.24787 -0.237031,1.36473 0.0787,0.20509 1.618522,1.27687 1.834473,1.27687 0.05836,0 0.501397,-0.27633 0.984531,-0.61406 z m 3.489568,0.71562 c -0.94357,-1.17001 -0.92716,-1.10684 -0.64503,-2.48232 0.13829,-0.67425 0.27359,-1.24378 0.30066,-1.26562 0.086,-0.0694 1.63978,-1.09548 1.80765,-1.19377 0.16368,-0.0958 1.15108,0.70225 1.36262,1.10137 0.0664,0.12532 0.0136,0.72521 -0.13001,1.47578 -0.23571,1.23205 -0.25848,1.27943 -0.88433,1.83976 -0.35332,0.31632 -0.80249,0.69149 -0.99816,0.8337 l -0.35575,0.25857 z m 1.2564,-0.71561 c 0.72831,-0.60564 0.74146,-0.63017 0.96864,-1.80545 l 0.18846,-0.97501 -0.44843,-0.45635 -0.44844,-0.45635 -0.72886,0.48394 c -0.68781,0.45668 -0.7376,0.52738 -0.88375,1.25506 -0.0852,0.42411 -0.18296,0.89257 -0.21728,1.04101 -0.0633,0.27388 0.63704,1.39409 0.87163,1.39409 0.0658,0 0.37994,-0.21643 0.69803,-0.48094 z m 2.1348,0.0415 -0.42599,-0.43951 0.23801,-1.19119 0.23801,-1.19119 0.65975,-0.44394 0.65974,-0.44394 0.43281,0.5105 c 0.5734,0.67632 0.61467,0.84351 0.42897,1.73799 -0.13262,0.63881 -0.25597,0.85041 -0.77468,1.32887 -0.33932,0.31299 -0.71002,0.56971 -0.82379,0.57049 -0.11377,0.001 -0.39854,-0.19635 -0.63283,-0.43808 z m 1.21674,-0.60218 c 0.34226,-0.35724 0.62132,-1.03186 0.62132,-1.50201 0,-0.11873 -0.12376,-0.37321 -0.27502,-0.56551 -0.26132,-0.33223 -0.29397,-0.33982 -0.65581,-0.15271 -0.31513,0.16296 -0.40679,0.3292 -0.53155,0.96399 -0.0829,0.42188 -0.17696,0.84628 -0.20898,0.9431 -0.0889,0.26892 0.18736,0.68923 0.45307,0.68923 0.13016,0 0.39879,-0.16924 0.59697,-0.37609 z m 0.90354,-3.12567 c -0.24865,-0.40234 -0.25923,-0.51688 -0.12339,-1.33667 0.12267,-0.74026 0.21942,-0.95624 0.55479,-1.23843 l 0.4062,-0.3418 0.45219,0.49342 c 0.43478,0.47442 0.44863,0.52191 0.35973,1.23343 -0.12005,0.96084 -0.12872,0.97874 -0.64417,1.33058 -0.57857,0.39494 -0.68347,0.38027 -1.00535,-0.14053 z m 1.1488,-0.47741 c 0.27611,-0.32917 0.21004,-1.3979 -0.10399,-1.6821 -0.24364,-0.22049 -0.29067,-0.22439 -0.4757,-0.0393 -0.20917,0.20917 -0.44306,1.00714 -0.4488,1.53118 -0.002,0.1595 0.093,0.38621 0.2106,0.50379 0.22521,0.2252 0.43273,0.14566 0.81789,-0.31352 z m -3.70906,-0.11421 c -0.67416,-0.74543 -0.66988,-0.73028 -0.49927,-1.76332 0.1522,-0.92161 0.18415,-0.98016 0.76918,-1.40955 0.33571,-0.2464 0.70674,-0.44948 0.8245,-0.4513 0.21066,-0.003 1.18363,1.31599 1.18363,1.60487 0,0.0814 -0.0934,0.46931 -0.2076,0.86207 -0.18782,0.64606 -0.275,0.75269 -0.91476,1.11872 -0.38892,0.22252 -0.73357,0.40459 -0.76587,0.40459 -0.0323,0 -0.20771,-0.16474 -0.38981,-0.36608 z m 1.03853,-0.55932 c 0.37701,-0.22988 0.70319,-0.87456 0.70629,-1.39593 0.002,-0.22956 -0.59597,-1.00479 -0.77492,-1.00571 -0.3868,-0.002 -0.90831,0.72213 -0.99956,1.38791 -0.0772,0.56346 -0.0491,0.69927 0.20028,0.96466 0.35008,0.37264 0.33832,0.37198 0.86791,0.049 z m -5.44066,-0.23939 c -0.33205,-0.4942 -0.64452,-0.97156 -0.69438,-1.0608 -0.10963,-0.19622 0.56022,-2.73048 0.75406,-2.85293 0.11891,-0.0751 1.90017,-0.37932 2.221,-0.37932 0.0636,0 0.36789,0.4596 0.67618,1.02132 0.53954,0.98307 0.55731,1.05283 0.47441,1.86198 -0.0474,0.46236 -0.12211,0.93443 -0.16609,1.04904 -0.092,0.23978 -2.04777,1.25926 -2.41575,1.25926 -0.15496,0 -0.46867,-0.33185 -0.84943,-0.89855 z m 1.95448,-0.26941 c 0.62839,-0.34274 0.67218,-0.40189 0.78357,-1.05835 0.1071,-0.63123 0.0826,-0.7631 -0.26624,-1.43064 -0.38031,-0.72784 -0.39038,-0.73532 -0.99108,-0.73563 -0.33378,-1.3e-4 -0.70974,0.0749 -0.83546,0.16683 -0.22091,0.16154 -0.61619,1.36413 -0.61942,1.88453 -0.003,0.37533 0.78954,1.54302 1.04396,1.5394 0.12049,-0.002 0.51859,-0.16647 0.88467,-0.36614 z m -9.300399,-0.70297 c -1.144655,-0.88258 -2.081194,-1.66114 -2.081194,-1.73014 0,-0.3202 2.058624,-4.38705 2.248609,-4.44216 0.117741,-0.0342 1.135252,-0.13054 2.261136,-0.21417 1.685116,-0.12517 2.076013,-0.1206 2.210774,0.0259 0.09004,0.0979 0.59437,0.81747 1.120737,1.59914 l 0.957027,1.42124 -0.469686,1.54935 c -0.258329,0.85214 -0.509382,1.61358 -0.557889,1.69207 -0.09404,0.15216 -3.26292,1.70351 -3.479691,1.70351 -0.07074,0 -1.065167,-0.72211 -2.209823,-1.60469 z m 3.648112,0.0583 c 1.431818,-0.67349 1.366452,-0.59331 1.868736,-2.29204 l 0.288697,-0.97638 -0.774045,-1.1279 c -0.425723,-0.62034 -0.851376,-1.17117 -0.945887,-1.22406 -0.163264,-0.0914 -2.727069,0.0454 -3.316775,0.17694 -0.203896,0.0455 -0.482072,0.49293 -1.041143,1.67469 -0.4196,0.88694 -0.732804,1.69108 -0.696006,1.78696 0.05747,0.14978 3.128053,2.5932 3.261688,2.5955 0.02651,4e-4 0.636159,-0.27572 1.354735,-0.61371 z m 10.700507,-1.84977 c -0.33712,-0.44199 -0.35144,-0.51998 -0.26208,-1.42693 0.11402,-1.15708 0.20416,-1.34537 0.75292,-1.57268 0.4028,-0.16684 0.44042,-0.15601 0.7459,0.2147 0.46679,0.56647 0.53121,0.82371 0.44671,1.78364 -0.07,0.79464 -0.11051,0.88411 -0.52809,1.16478 -0.60282,0.40518 -0.73597,0.38634 -1.15536,-0.16351 z m 1.06631,-0.18822 c 0.14024,-0.15496 0.2601,-0.56592 0.30298,-1.03878 0.0637,-0.70261 0.0362,-0.82238 -0.2699,-1.17462 -0.27732,-0.31912 -0.38449,-0.36552 -0.57502,-0.24893 -0.25165,0.154 -0.35614,0.4471 -0.49898,1.39966 -0.0752,0.50172 -0.0426,0.66723 0.18962,0.96249 0.33265,0.4229 0.53743,0.447 0.8513,0.10018 z m -4.52647,-1.09336 -0.47862,-0.95039 0.36781,-1.34589 c 0.20229,-0.74023 0.42424,-1.42076 0.49324,-1.51228 0.0724,-0.0961 0.42099,-0.1664 0.82498,-0.1664 0.4032,0 0.75333,0.0705 0.8265,0.1664 0.0698,0.0915 0.28947,0.62128 0.48813,1.17726 l 0.36119,1.01085 -0.28986,0.78624 c -0.15943,0.43243 -0.35301,0.86579 -0.43019,0.96301 -0.15557,0.19599 -1.33484,0.82161 -1.5487,0.82161 -0.0747,0 -0.35124,-0.42769 -0.61448,-0.95041 z m 1.40343,0.087 c 0.2749,-0.14216 0.46259,-0.41193 0.66735,-0.9592 l 0.28489,-0.76142 -0.31829,-0.87117 c -0.30532,-0.83567 -0.33789,-0.87284 -0.79919,-0.91202 l -0.4809,-0.0409 -0.26651,0.90611 c -0.44419,1.51023 -0.45134,1.58045 -0.20938,2.05655 0.43507,0.85612 0.51337,0.89673 1.12203,0.58199 z m -19.959417,0.36652 -1.526234,-0.0449 -0.827663,-0.62768 -0.827663,-0.62769 -0.807654,-2.2397 c -0.444212,-1.23184 -0.807658,-2.34299 -0.807658,-2.46924 0,-0.27231 3.796226,-4.40964 4.046082,-4.40964 0.692222,0 5.333841,0.8162 5.418245,0.95277 0.191413,0.30972 1.717597,4.75125 1.716561,4.99557 -5.03e-4,0.13291 -0.494767,1.20009 -1.098228,2.37153 l -1.097196,2.12989 -1.331179,0.007 c -0.73215,0.004 -2.017987,-0.0132 -2.857413,-0.0379 z m 4.446226,-2.65987 c 0.480629,-0.93083 0.87387,-1.78692 0.87387,-1.90243 0,-0.32505 -1.322892,-3.9078 -1.503614,-4.07218 -0.0882,-0.0802 -1.088341,-0.28376 -2.222542,-0.4523 l -2.062186,-0.30645 -1.441937,1.51725 c -0.793068,0.83449 -1.529052,1.64404 -1.635523,1.79901 -0.176621,0.25708 -0.122762,0.47867 0.614777,2.52925 0.4446,1.23611 0.90698,2.32235 1.027508,2.41387 0.158172,0.1201 0.950435,0.1664 2.847462,0.1664 h 2.628316 z m 9.529175,-0.16731 c -0.58717,-0.87642 -1.067351,-1.70009 -1.067079,-1.83037 2.67e-4,-0.13029 0.290181,-1.01562 0.644239,-1.96742 l 0.643746,-1.73053 h 1.4444 1.4444 l 0.65989,1.64309 0.65989,1.6431 -0.4333,1.55174 c -0.23832,0.85345 -0.48482,1.649 -0.54777,1.76787 -0.0773,0.14592 -0.44193,0.26483 -1.1226,0.36607 -0.55448,0.0825 -1.06442,0.14994 -1.13319,0.14994 -0.0688,0 -0.60547,-0.71707 -1.192626,-1.59349 z m 2.872586,0.6263 c 0.0425,-0.0425 0.25529,-0.68719 0.47296,-1.43276 l 0.39577,-1.35557 -0.48652,-1.21723 c -0.26759,-0.66948 -0.54823,-1.29211 -0.62365,-1.38363 -0.0831,-0.10077 -0.46555,-0.1664 -0.9698,-0.1664 -0.50943,0 -0.88214,0.0646 -0.9601,0.1664 -0.0701,0.0915 -0.35465,0.78079 -0.632358,1.53171 l -0.504925,1.36531 0.836703,1.26889 c 0.46018,0.69789 0.92147,1.31633 1.02508,1.37431 0.19104,0.10691 1.30521,-0.009 1.44684,-0.15103 z m 5.14428,-0.79662 c -0.0733,-0.0915 -0.26493,-0.42753 -0.42579,-0.74669 -0.24966,-0.49537 -0.2694,-0.63597 -0.1349,-0.96069 0.25608,-0.61824 0.45632,-0.71302 0.92345,-0.43708 0.57309,0.33853 0.85903,1.44225 0.53197,2.05337 -0.15511,0.28983 -0.69175,0.34446 -0.89473,0.0911 z m 0.69363,-0.47996 c 0.13619,-0.4291 -0.22263,-1.27849 -0.56035,-1.32647 -0.39329,-0.0559 -0.50836,0.26389 -0.29166,0.81044 0.31233,0.78772 0.69267,1.01808 0.85201,0.51603 z M 75.07577,144.91763 c -0.159913,-0.10407 -1.643442,-4.80698 -1.643442,-5.20984 0,-0.22863 2.116282,-3.48398 2.577269,-3.96446 0.12571,-0.13102 0.46634,-0.11519 1.656291,0.077 0.82392,0.13306 1.54882,0.29714 1.61089,0.36462 0.202402,0.22006 1.743277,3.98252 1.743277,4.25668 0,0.14673 -0.345298,1.16106 -0.767328,2.25406 -0.759027,1.96578 -0.772345,1.98824 -1.231339,2.07715 -0.69751,0.1351 -3.786355,0.24847 -3.945618,0.14481 z m 3.192488,-0.90665 0.613312,-0.0841 0.668973,-1.72067 0.668968,-1.72067 -0.613026,-1.48993 c -0.955099,-2.32134 -0.818697,-2.15913 -1.972032,-2.34518 -0.551443,-0.089 -1.059995,-0.12629 -1.13011,-0.083 -0.164199,0.10148 -2.078236,2.87253 -2.162454,3.1307 -0.03512,0.10765 0.07665,0.64677 0.248362,1.19806 0.171716,0.55128 0.464282,1.49653 0.650146,2.10056 l 0.337927,1.09822 h 1.038311 c 0.57107,0 1.314299,-0.0378 1.651623,-0.0841 z m 8.158545,0.65502 c -0.45181,-1.48743 -1.01382,-3.84394 -1.01367,-4.25034 2.6e-4,-0.6623 0.3627,-2.72707 0.50344,-2.86781 0.0594,-0.0594 0.52045,-0.0333 1.02454,0.0581 l 0.91652,0.16611 0.66114,1.428 0.66114,1.42799 -0.25279,2.09957 -0.25278,2.09957 -1.0876,0.0385 c -0.9489,0.0336 -1.09683,0.008 -1.15994,-0.19968 z m 1.75909,-0.40456 c 0.066,-0.12813 0.1987,-0.99979 0.29496,-1.93702 l 0.17502,-1.70407 -0.58633,-1.1962 c -0.46465,-0.94796 -0.6561,-1.21129 -0.92259,-1.26893 -0.18495,-0.04 -0.4016,-0.0921 -0.48145,-0.11585 -0.30975,-0.092 -0.44115,0.17722 -0.63861,1.30849 l -0.20478,1.17324 0.48282,1.82025 c 0.26556,1.00114 0.54025,1.89513 0.61043,1.98665 0.19907,0.2596 1.12763,0.21095 1.27053,-0.0666 z m -29.529667,-2.9814 c -1.72055,-0.43672 -3.194983,-0.86556 -3.276519,-0.95299 -0.138586,-0.14861 -0.857901,-5.18903 -0.852568,-5.97418 0.002,-0.31228 0.287112,-0.55166 2.258344,-1.89693 1.240758,-0.84676 2.304576,-1.53956 2.364046,-1.53956 0.217656,0 4.903238,2.01317 5.068599,2.17773 0.179977,0.17911 1.352602,4.34606 1.357422,4.82362 0.0025,0.26698 -3.481905,4.1961 -3.696859,4.16846 -0.05181,-0.007 -1.501914,-0.36943 -3.222465,-0.80615 z m 4.415667,-1.85366 c 0.756229,-0.81061 1.395799,-1.53205 1.421268,-1.6032 0.04553,-0.12722 -0.284688,-1.46513 -0.787992,-3.19251 l -0.255904,-0.8783 -1.969923,-0.81896 c -1.083461,-0.45043 -2.063963,-0.81896 -2.178902,-0.81896 -0.281145,0 -3.569604,2.23287 -3.668674,2.49104 -0.117655,0.30661 0.484166,4.73958 0.668309,4.92273 0.162504,0.16162 4.580198,1.33778 5.107843,1.3599 0.204223,0.009 0.692388,-0.42027 1.663975,-1.46174 z m 18.78409,0.37563 c -0.0707,-0.0915 -0.449207,-0.99793 -0.84119,-2.01424 l -0.712695,-1.84785 0.636049,-1.24714 c 0.349826,-0.68594 0.709394,-1.24715 0.799036,-1.24715 0.28169,0 1.87126,0.55892 2.03527,0.71563 0.0861,0.0823 0.39151,0.73423 0.67862,1.44875 l 0.52201,1.29911 -0.23783,1.39606 c -0.13081,0.76783 -0.27499,1.45617 -0.3204,1.52964 -0.1237,0.20015 -2.40153,0.17095 -2.55887,-0.0328 z m 2.17967,-1.2979 c 0.25326,-1.20751 0.20481,-1.72046 -0.26404,-2.79548 -0.45409,-1.04116 -0.76467,-1.32143 -1.52155,-1.37306 -0.31606,-0.0215 -0.41676,0.0788 -0.796104,0.79369 l -0.434271,0.81836 0.606223,1.56854 c 0.333422,0.8627 0.638312,1.62045 0.677522,1.68389 0.0392,0.0634 0.41045,0.0975 0.82498,0.0758 l 0.75368,-0.0396 z m -14.252292,-0.0813 c -1.384601,-0.17664 -2.589213,-0.38072 -2.676913,-0.4535 -0.0877,-0.0728 -0.47517,-1.23758 -0.86105,-2.58843 l -0.70159,-2.4561 0.539831,-0.63814 c 0.296903,-0.35097 0.981513,-1.07394 1.521349,-1.60658 l 0.981518,-0.96845 2.323071,0.54995 c 1.277692,0.30247 2.388844,0.63244 2.469233,0.73326 0.08039,0.10082 0.494183,1.05222 0.919549,2.11422 l 0.773386,1.93091 -0.774896,1.16631 c -1.049178,1.57914 -1.784965,2.56678 -1.900387,2.55088 -0.0526,-0.007 -1.228496,-0.1577 -2.613101,-0.33433 z m 2.259607,-0.81931 c 0.283384,-0.19587 1.788714,-2.47967 1.788714,-2.71374 0,-0.27173 -1.023564,-2.91142 -1.199084,-3.09234 -0.130153,-0.13416 -3.114514,-0.87346 -3.544408,-0.87804 -0.180903,-0.002 -0.639998,0.36277 -1.264404,1.00443 -0.539207,0.5541 -1.021677,1.08126 -1.072161,1.17147 -0.08859,0.15831 0.894574,3.77162 1.08322,3.98101 0.05107,0.0567 0.957001,0.2139 2.013177,0.34937 1.056182,0.13546 1.950282,0.2529 1.986889,0.26097 0.03663,0.008 0.130234,-0.0293 0.208057,-0.0831 z m 14.261835,-1.32506 -0.77212,-0.20245 -0.60241,-1.19948 -0.60242,-1.19948 0.22671,-0.92511 c 0.12469,-0.50881 0.29396,-0.94777 0.37615,-0.97547 0.0822,-0.0277 0.50712,0.0242 0.94429,0.1152 l 0.79484,0.16556 0.5845,1.10227 0.5845,1.10227 -0.14943,1.00468 c -0.20982,1.41075 -0.11847,1.34399 -1.38461,1.01201 z m 0.74894,-1.25218 c 0.0994,-0.5438 0.0654,-0.70471 -0.30289,-1.43423 -0.61855,-1.22533 -1.3235,-1.43408 -1.58951,-0.47068 -0.12077,0.43739 -0.0859,0.5868 0.32921,1.41113 0.67621,1.34276 1.36816,1.56133 1.56319,0.49378 z m -9.588908,-0.23152 c -0.747324,-0.1197 -1.418093,-0.27754 -1.490608,-0.35076 -0.149226,-0.15067 -1.476959,-3.60617 -1.476959,-3.84387 0,-0.0849 0.434719,-0.62575 0.966042,-1.20191 l 0.966037,-1.04757 1.411573,0.66584 1.411573,0.66583 0.369619,0.9831 c 0.203292,0.54071 0.451236,1.1851 0.550986,1.43199 0.09975,0.24689 0.181365,0.56899 0.181365,0.71577 0,0.44529 -1.054581,2.23184 -1.307225,2.21454 -0.122998,-0.008 -0.835078,-0.11325 -1.582403,-0.23296 z m 1.874733,-1.26116 0.382842,-0.70979 -0.430835,-1.18667 c -0.236956,-0.65267 -0.529039,-1.28825 -0.649074,-1.4124 -0.120035,-0.12414 -0.63226,-0.41051 -1.138271,-0.63638 l -0.920026,-0.41066 -0.644114,0.69697 c -0.354259,0.38333 -0.644113,0.80164 -0.644113,0.92957 0,0.38719 1.079305,3.0546 1.264771,3.12577 0.272386,0.10452 1.417801,0.28149 1.930061,0.29819 0.43159,0.0141 0.494123,-0.0371 0.848759,-0.6946 z m -28.654479,-1.22378 -2.313618,-1.12446 0.07747,-0.63369 c 0.04262,-0.34852 0.143224,-1.35252 0.223588,-2.2311 0.08036,-0.87858 0.172647,-1.72582 0.205073,-1.88275 0.04131,-0.20001 0.566849,-0.58238 1.757239,-1.27858 0.934048,-0.54628 1.837662,-1.06641 2.00803,-1.15584 0.271837,-0.1427 0.560439,-0.0621 2.357756,0.65849 1.292599,0.51824 2.071963,0.90252 2.112957,1.04183 0.09273,0.3151 0.610812,3.80989 0.610812,4.12031 0,0.28873 -4.17544,3.62392 -4.526012,3.61521 -0.109821,-0.003 -1.240807,-0.51096 -2.513295,-1.12942 z m 4.131426,-1.25286 c 0.842435,-0.65482 1.608083,-1.28262 1.701443,-1.39511 0.135964,-0.16383 0.138187,-0.43681 0.01117,-1.37193 -0.298262,-2.19576 -0.191781,-2.04202 -1.869823,-2.69959 -0.807759,-0.31654 -1.544331,-0.57552 -1.636831,-0.57552 -0.209279,0 -2.986358,1.61452 -3.103727,1.80443 -0.128125,0.20731 -0.458868,3.57195 -0.365906,3.72237 0.115321,0.1866 3.238967,1.70594 3.507272,1.70594 0.123587,0 0.913964,-0.53576 1.756402,-1.19059 z m 27.273508,1.37979 c -0.3267,-0.10376 -0.666629,-0.26365 -0.75539,-0.35532 -0.204731,-0.21143 -1.113286,-2.41006 -1.113286,-2.69406 0,-0.11709 0.243084,-0.54195 0.540193,-0.94413 l 0.540189,-0.73123 0.799614,0.4374 c 1.0791,0.59027 1.21255,0.73313 1.65298,1.76941 l 0.38043,0.89513 -0.45913,0.8832 c -0.5105,0.98203 -0.63679,1.04094 -1.5856,0.7396 z m 0.98994,-0.98129 c 0.26577,-0.51395 0.25256,-0.88318 -0.0559,-1.5627 -0.26783,-0.58992 -1.21114,-1.3167 -1.543474,-1.18917 -0.09918,0.0381 -0.268582,0.23986 -0.376452,0.44846 -0.182231,0.35239 -0.168652,0.4448 0.19169,1.30475 0.213294,0.50902 0.514716,1.03032 0.669826,1.15844 0.43633,0.36043 0.8781,0.29709 1.11436,-0.15978 z M 62.247485,130.8242 c -1.279654,-0.55177 -2.3962,-1.07126 -2.481213,-1.15441 -0.145453,-0.14225 -0.714722,-3.44797 -0.70724,-4.10687 0.0025,-0.23086 0.311584,-0.52316 1.28307,-1.21388 0.703789,-0.5004 1.346192,-0.93298 1.427562,-0.9613 0.08138,-0.0283 1.106096,0.32179 2.277156,0.77802 l 2.129207,0.82951 0.631596,1.79576 c 0.347377,0.98767 0.632225,1.87624 0.63299,1.9746 0.0015,0.17224 -2.382787,2.78954 -2.707543,2.97234 -0.08742,0.0492 -1.205931,-0.36199 -2.485585,-0.91377 z m 3.25084,-1.28454 c 0.410096,-0.4671 0.745629,-0.96595 0.745629,-1.10855 0,-0.35372 -0.777803,-2.47177 -0.973689,-2.65145 -0.185009,-0.16972 -3.00593,-1.25297 -3.262886,-1.25297 -0.09634,0 -0.560303,0.27482 -1.031015,0.61072 -0.601081,0.42892 -0.855682,0.69639 -0.855304,0.89854 10e-4,0.5176 0.407756,2.8127 0.518091,2.92304 0.05921,0.0592 0.91022,0.45742 1.891124,0.88491 1.261456,0.54975 1.847706,0.74327 2.002944,0.66115 0.120715,-0.0639 0.555011,-0.49829 0.965106,-0.96539 z m 5.490112,-0.48692 c -1.087889,-0.27953 -2.023688,-0.55863 -2.07955,-0.62021 -0.1901,-0.20958 -1.170425,-3.34003 -1.085498,-3.4663 0.155651,-0.23141 2.452605,-1.90384 2.614792,-1.90384 0.240432,0 3.702308,1.46412 3.883437,1.64242 0.08643,0.0851 0.40352,0.81361 0.704649,1.61897 l 0.547514,1.4643 -0.921852,0.89855 c -0.723341,0.70505 -1.004073,0.89594 -1.303683,0.88645 -0.210009,-0.007 -1.271926,-0.24081 -2.359809,-0.52034 z m 3.134749,-0.77331 0.671061,-0.64015 -0.356141,-0.99054 c -0.195876,-0.5448 -0.438809,-1.11773 -0.539846,-1.27318 -0.18371,-0.28263 -2.904495,-1.51446 -3.34505,-1.51446 -0.225948,0 -1.57945,0.93593 -1.867533,1.29138 -0.119709,0.1477 -0.0639,0.46287 0.250147,1.41285 0.222326,0.67251 0.447483,1.27075 0.500346,1.32941 0.09941,0.1103 3.342807,0.97618 3.773098,1.00729 0.133569,0.01 0.544832,-0.27051 0.913918,-0.6226 z m 3.435799,-0.46326 -1.131504,-0.56056 -0.420239,-1.1315 c -0.603642,-1.62534 -0.609348,-1.55926 0.191383,-2.21679 l 0.702969,-0.57725 1.188729,0.59702 c 1.166461,0.58583 1.198777,0.61512 1.724677,1.56341 0.294769,0.53152 0.536736,1.04815 0.537702,1.14808 0.0035,0.34478 -1.117039,1.74083 -1.39598,1.73946 -0.146429,-6.5e-4 -0.775409,-0.25356 -1.397737,-0.56187 z m 1.777962,-0.786 0.284164,-0.49167 -0.39875,-0.75086 c -0.35279,-0.66432 -0.503592,-0.80411 -1.308272,-1.21278 -0.760284,-0.38613 -0.945937,-0.43451 -1.131499,-0.29486 -0.533663,0.40162 -0.544636,0.4887 -0.19328,1.53373 l 0.337259,1.00308 0.815402,0.37849 c 0.448469,0.20817 0.926868,0.36681 1.063104,0.35252 0.136241,-0.0143 0.375582,-0.24723 0.531872,-0.51765 z m 2.681486,0.27076 c -0.78925,-0.40867 -1.032364,-0.67887 -1.522572,-1.69218 -0.506232,-1.04644 -0.489881,-1.32379 0.117062,-1.98567 l 0.401366,-0.43769 0.834864,0.52252 c 0.855,0.53511 1.22504,1.04358 1.58194,2.17373 0.1398,0.44266 0.1204,0.54812 -0.20198,1.09822 -0.19615,0.3347 -0.42898,0.6059 -0.51742,0.60266 -0.0884,-0.003 -0.4004,-0.12995 -0.69326,-0.28159 z m 0.72642,-0.83712 c 0.25064,-0.302 -0.41104,-1.65651 -0.99506,-2.03696 -0.557901,-0.36344 -0.681971,-0.37127 -0.851891,-0.0538 -0.09926,0.18546 -0.03849,0.44249 0.247763,1.04774 0.51708,1.09337 1.192038,1.53358 1.599188,1.04299 z m -36.001514,-2.41398 c -0.951149,-0.40269 -1.773444,-0.77625 -1.827328,-0.83013 -0.05388,-0.0539 0.156411,-0.78523 0.467311,-1.62521 l 0.565274,-1.52726 1.727961,-0.62589 c 0.95038,-0.34425 1.880016,-0.62879 2.06586,-0.63231 0.185838,-0.004 0.934627,0.19353 1.663974,0.43792 l 1.326082,0.44433 0.03743,1.46611 c 0.03139,1.22951 0.002,1.49548 -0.181789,1.64807 -0.445209,0.36949 -3.583707,1.98728 -3.845054,1.982 -0.148713,-0.003 -1.048599,-0.33495 -1.999744,-0.73763 z m 3.744118,-1.00859 1.512866,-0.81986 V 121.327 c 0,-0.55651 -0.06286,-0.94412 -0.166398,-1.02607 -0.09152,-0.0724 -0.570848,-0.2644 -1.065172,-0.42658 l -0.898779,-0.29489 -1.444976,0.48149 c -0.794738,0.26482 -1.541625,0.55428 -1.659748,0.64324 -0.118123,0.089 -0.363828,0.56084 -0.546019,1.0486 -0.262364,0.70244 -0.296335,0.91583 -0.16337,1.02618 0.292154,0.24246 2.270123,1.05535 2.601223,1.06902 0.174629,0.007 0.998297,-0.35583 1.830373,-0.80675 z m 5.572965,0.55344 c -0.805364,-0.35271 -1.539175,-0.70899 -1.630698,-0.79172 -0.11281,-0.10198 -0.166393,-0.59632 -0.166393,-1.53505 0,-0.96252 0.05072,-1.41691 0.166393,-1.49048 0.293407,-0.18662 2.688807,-1.10687 2.88259,-1.10741 0.262389,-6.6e-4 2.584056,0.68819 2.722551,0.80788 0.14187,0.1226 0.607415,2.05727 0.613584,2.54985 0.004,0.31443 -0.182202,0.48839 -1.388757,1.2979 -0.766317,0.51414 -1.470176,0.9293 -1.564134,0.92257 -0.09396,-0.007 -0.829771,-0.30082 -1.635136,-0.65354 z m 2.668375,-0.9357 c 1.088351,-0.73441 1.124556,-0.81739 0.843577,-1.93326 -0.145921,-0.57951 -0.165458,-0.59606 -1.012405,-0.85766 -0.474989,-0.1467 -0.999933,-0.26674 -1.166542,-0.26674 -0.399097,0 -2.101963,0.64416 -2.228443,0.84297 -0.170232,0.26759 -0.11676,1.64221 0.06991,1.79713 0.178815,0.14841 2.208278,1.06158 2.395676,1.07796 0.05822,0.005 0.55242,-0.29209 1.098227,-0.6604 z m 5.918279,0.79185 c -0.988104,-0.43792 -1.870502,-0.87017 -1.960878,-0.96055 -0.2063,-0.20629 -0.874101,-3.4384 -0.736708,-3.56561 0.171963,-0.15923 2.778066,-1.05388 3.069937,-1.05388 0.513468,0 3.330334,1.07671 3.422174,1.30808 0.358038,0.90198 0.997186,2.74662 0.997186,2.87798 0,0.15532 -2.440068,2.00195 -2.811946,2.12807 -0.100766,0.0342 -0.991661,-0.29616 -1.979765,-0.73409 z m 2.945052,-0.93351 c 0.503159,-0.37301 0.914829,-0.69905 0.914829,-0.72454 0,-0.24098 -0.750398,-2.02942 -0.903614,-2.15358 -0.109807,-0.089 -0.749362,-0.34494 -1.421233,-0.56878 l -1.221583,-0.40697 -0.922421,0.34718 c -0.507335,0.19094 -0.989287,0.40264 -1.071004,0.47044 -0.108403,0.0899 -0.08582,0.43037 0.08352,1.25914 0.127657,0.62472 0.258867,1.16263 0.29158,1.19534 0.174181,0.17418 2.74909,1.23955 3.018583,1.24893 0.184732,0.006 0.697395,-0.27133 1.231339,-0.66716 z m 5.310773,0.60162 c -0.913506,-0.39905 -1.726231,-0.79966 -1.806046,-0.89024 -0.266087,-0.30197 -1.160147,-2.77937 -1.042009,-2.88737 0.06385,-0.0584 0.685168,-0.1689 1.380711,-0.24561 l 1.264621,-0.13947 1.26462,0.57385 1.26462,0.57386 0.629448,1.1797 c 0.346194,0.64883 0.630735,1.24039 0.63231,1.31457 0.0045,0.20927 -1.411487,1.26389 -1.684381,1.25457 -0.13363,-0.005 -0.990383,-0.3348 -1.903894,-0.73386 z m 2.38897,-0.30057 0.451749,-0.37714 -0.460735,-0.8542 c -0.440977,-0.81757 -0.509095,-0.87803 -1.588279,-1.40975 -1.061037,-0.52277 -1.172428,-0.54987 -1.888393,-0.4594 -0.418468,0.0529 -0.797888,0.13318 -0.843154,0.17845 -0.118823,0.11882 0.469132,1.66627 0.708991,1.86601 0.177537,0.14785 2.908848,1.40518 3.096482,1.42544 0.03939,0.004 0.274877,-0.16198 0.523339,-0.36941 z m -16.569086,-4.72328 -1.198063,-0.42398 v -1.12536 -1.12536 l 0.931825,-0.36385 c 0.512506,-0.20011 1.081584,-0.36673 1.26462,-0.37026 0.396723,-0.008 1.818263,0.42025 1.984298,0.59728 0.168441,0.17959 0.52756,1.86948 0.428631,2.01699 -0.173864,0.25926 -1.743332,1.23545 -1.972988,1.22717 -0.132145,-0.005 -0.779393,-0.19945 -1.438323,-0.43263 z m 2.084952,-0.63753 c 0.696464,-0.44692 0.709329,-0.4776 0.506469,-1.20798 -0.12013,-0.43252 -0.215221,-0.51601 -0.814385,-0.71502 -0.570371,-0.18945 -0.765829,-0.19972 -1.227706,-0.0645 -0.927312,0.27139 -1.148364,0.47636 -1.148364,1.06481 0,0.28685 0.07357,0.57001 0.16348,0.62924 0.133966,0.0883 1.629656,0.65999 1.821638,0.69633 0.03019,0.006 0.34469,-0.17556 0.698868,-0.40283 z"
         id="path3148"
         sodipodi:nodetypes="ssssssscsssssssscssssssssssssssssssssssssssssssssssssssssssssssssscsssssssccsssssscsssssssssssssssssssssssscssssssssssscsssssssscssssssssssssssssssscssscsssssssssssssscssssssssssssssssssssssssssssccsssssssscsssssssssssscssscccscsssscccccssscsssssssssssscssssssscsssssscsssssscssssssssssscssssscscsssssssssssssssscssssscsssssssssssssssscssssccsssssscsscssssccccsssscsccscsssscscssscsssscccscssssssscssssscssssssssssssssssssssssscccsssscscsssssscccccssssscsssscssssscssscssssscsssssssscsssscsssssssscssscsssscsscsssssssssssssssssscccssscccscsssssssssccssssssscssscsssssscssssssssssssssssssssssscsscssssssssssscssscscssssssscsssssssssscsssscssssssssscsscssccsscsssscssssssssssssssssccsscssscscsccssssscsssssssssscscssssssssssssssssssssssscsssssssssscccscssscsssssssscccssssssssssscsssscccccscccccccs" /></g></g></svg>
